<svg width="21" height="20" viewBox="0 0 21 20" fill="none" xmlns="http://www.w3.org/2000/svg">
<path d="M15.7734 18.7499C15.0109 18.7499 13.9398 18.4741 12.3359 17.578C10.3855 16.4843 8.87695 15.4745 6.9371 13.5397C5.06679 11.6706 4.15663 10.4604 2.88281 8.14246C1.44374 5.52527 1.68906 4.1534 1.96328 3.56707C2.28984 2.86629 2.77187 2.44715 3.39492 2.03113C3.7488 1.79927 4.1233 1.60051 4.51367 1.43738C4.55273 1.42058 4.58906 1.40457 4.62148 1.39012C4.81484 1.30301 5.10781 1.17137 5.4789 1.31199C5.72656 1.40496 5.94765 1.59519 6.29374 1.93699C7.00351 2.63699 7.97343 4.19598 8.33124 4.9616C8.57148 5.47762 8.73046 5.81824 8.73085 6.20027C8.73085 6.64754 8.50585 6.99246 8.23281 7.36473C8.18163 7.43465 8.13085 7.50144 8.08163 7.56629C7.78437 7.95691 7.71913 8.0698 7.7621 8.27137C7.84921 8.67644 8.49882 9.8823 9.5664 10.9475C10.634 12.0128 11.8051 12.6214 12.2117 12.7081C12.4219 12.753 12.5371 12.685 12.9402 12.3772C12.998 12.3331 13.0574 12.2874 13.1195 12.2417C13.5359 11.9319 13.8648 11.7128 14.3016 11.7128H14.3039C14.684 11.7128 15.0094 11.8776 15.5484 12.1495C16.2516 12.5042 17.8574 13.4616 18.5617 14.1721C18.9043 14.5175 19.0953 14.7378 19.1887 14.985C19.3293 15.3573 19.1969 15.6491 19.1105 15.8444C19.0961 15.8768 19.0801 15.9124 19.0633 15.9518C18.8989 16.3415 18.6989 16.7152 18.466 17.0682C18.0508 17.6893 17.6301 18.1702 16.9277 18.4971C16.5671 18.6677 16.1724 18.7542 15.7734 18.7499Z" fill="white"/>
</svg>
