<svg width="32" height="33" viewBox="0 0 32 33" fill="none" xmlns="http://www.w3.org/2000/svg">
<rect y="0.272705" width="32" height="32" rx="16" fill="white"/>
<path fill-rule="evenodd" clip-rule="evenodd" d="M23 16.3149C23 12.4493 19.8656 9.31494 16 9.31494C12.1344 9.31494 9 12.4493 9 16.3149C9 19.8087 11.5594 22.7046 14.9062 23.2303V18.339H13.1284V16.3149H14.9062V14.7728C14.9062 13.0187 15.9516 12.049 17.5503 12.049C18.3162 12.049 19.1175 12.1859 19.1175 12.1859V13.9087H18.2344C17.3653 13.9087 17.0934 14.4481 17.0934 15.0024V16.3149H19.0347L18.7247 18.339H17.0938V23.2309C20.4406 22.7056 23 19.8096 23 16.3149Z" fill="#C22522"/>
</svg>
