<svg width="32" height="33" viewBox="0 0 32 33" fill="none" xmlns="http://www.w3.org/2000/svg">
<rect y="0.272705" width="32" height="32" rx="16" fill="#C22522"/>
<path d="M18.7933 9.60596H13.2066C10.78 9.60596 9.33331 11.0526 9.33331 13.4793V19.0593C9.33331 21.4926 10.78 22.9393 13.2066 22.9393H18.7866C21.2133 22.9393 22.66 21.4926 22.66 19.066V13.4793C22.6666 11.0526 21.22 9.60596 18.7933 9.60596ZM16 18.8593C14.5733 18.8593 13.4133 17.6993 13.4133 16.2726C13.4133 14.846 14.5733 13.686 16 13.686C17.4266 13.686 18.5866 14.846 18.5866 16.2726C18.5866 17.6993 17.4266 18.8593 16 18.8593ZM19.9466 12.8593C19.9133 12.9393 19.8666 13.0126 19.8066 13.0793C19.74 13.1393 19.6666 13.186 19.5866 13.2193C19.5066 13.2526 19.42 13.2726 19.3333 13.2726C19.1533 13.2726 18.9866 13.206 18.86 13.0793C18.8 13.0126 18.7533 12.9393 18.72 12.8593C18.6866 12.7793 18.6666 12.6926 18.6666 12.606C18.6666 12.5193 18.6866 12.4326 18.72 12.3526C18.7533 12.266 18.8 12.1993 18.86 12.1326C19.0133 11.9793 19.2466 11.906 19.46 11.9526C19.5066 11.9593 19.5466 11.9726 19.5866 11.9926C19.6266 12.006 19.6666 12.026 19.7066 12.0526C19.74 12.0726 19.7733 12.106 19.8066 12.1326C19.8666 12.1993 19.9133 12.266 19.9466 12.3526C19.98 12.4326 20 12.5193 20 12.606C20 12.6926 19.98 12.7793 19.9466 12.8593Z" fill="white"/>
</svg>
