<svg width="32" height="33" viewBox="0 0 32 33" fill="none" xmlns="http://www.w3.org/2000/svg">
<rect y="0.272705" width="32" height="32" rx="16" fill="white"/>
<path d="M22.3803 9.27271H10.6962C10.0578 9.27271 9.5 9.73208 9.5 10.363V22.073C9.5 22.7074 10.0578 23.2727 10.6962 23.2727H22.3769C23.0187 23.2727 23.5 22.7036 23.5 22.073V10.363C23.5037 9.73208 23.0188 9.27271 22.3803 9.27271ZM13.8397 20.9424H11.8341V14.7065H13.8397V20.9424ZM12.9062 13.7583H12.8919C12.25 13.7583 11.8344 13.2805 11.8344 12.6824C11.8344 12.0733 12.2609 11.6068 12.9172 11.6068C13.5734 11.6068 13.975 12.0699 13.9894 12.6824C13.9891 13.2805 13.5734 13.7583 12.9062 13.7583ZM21.1697 20.9424H19.1641V17.5327C19.1641 16.7158 18.8722 16.1577 18.1466 16.1577C17.5922 16.1577 17.2641 16.5327 17.1181 16.898C17.0634 17.0293 17.0487 17.208 17.0487 17.3905V20.9424H15.0431V14.7065H17.0487V15.5743C17.3406 15.1586 17.7966 14.5605 18.8575 14.5605C20.1741 14.5605 21.17 15.4283 21.17 17.2993L21.1697 20.9424Z" fill="#C22522"/>
</svg>
