<svg width="32" height="33" viewBox="0 0 32 33" fill="none" xmlns="http://www.w3.org/2000/svg">
<rect y="0.272705" width="32" height="32" rx="16" fill="white"/>
<path d="M24 11.6946C23.4373 11.9391 22.842 12.1001 22.2328 12.1727C22.873 11.7978 23.3545 11.2023 23.5869 10.4977C22.9816 10.8516 22.3205 11.1 21.6319 11.2321C21.3419 10.9282 20.9932 10.6864 20.6069 10.5215C20.2205 10.3566 19.8047 10.2719 19.3847 10.2727C17.6841 10.2727 16.3078 11.629 16.3078 13.3008C16.3066 13.5334 16.3333 13.7652 16.3872 13.9915C15.1677 13.9343 13.9736 13.6232 12.8812 13.0781C11.7889 12.533 10.8223 11.7659 10.0434 10.8258C9.77018 11.2865 9.62567 11.8121 9.625 12.3477C9.625 13.3977 10.1728 14.3258 11 14.8696C10.5099 14.858 10.0299 14.7282 9.60063 14.4915V14.529C9.60063 15.9977 10.6631 17.2196 12.0694 17.4977C11.8049 17.5682 11.5324 17.6039 11.2587 17.604C11.0646 17.6043 10.8708 17.5855 10.6803 17.5477C11.0712 18.7508 12.2091 19.6258 13.5569 19.6508C12.4617 20.4949 11.1171 20.9511 9.73438 20.9477C9.48894 20.9473 9.24374 20.9327 9 20.904C10.4066 21.8022 12.0417 22.2773 13.7106 22.2727C19.3781 22.2727 22.4744 17.6571 22.4744 13.654C22.4744 13.5227 22.4709 13.3915 22.4647 13.2633C23.0657 12.8359 23.5856 12.3046 24 11.6946Z" fill="#C22522"/>
</svg>
