<svg width="101" height="100" viewBox="0 0 101 100" fill="none" xmlns="http://www.w3.org/2000/svg">
<path d="M25.7887 92.8013L1.07735 50L25.7887 7.19873H75.2113L99.9226 50L75.2113 92.8013H25.7887Z" fill="#F8FAFC" stroke="#E2E8F0"/>
<path d="M34.9153 28.0747C31.7753 28.0747 29.4527 30.8239 29.5563 33.8055C29.6561 36.6694 29.5266 40.3794 28.5925 43.4042C27.6563 46.4387 26.0725 48.3563 23.4856 48.6031V51.3974C26.0725 51.6437 27.6563 53.5617 28.5925 56.5962C29.5266 59.6211 29.6557 63.331 29.5563 66.1949C29.4522 69.1765 31.7753 71.9253 34.9153 71.9253H67.089C70.229 71.9253 72.5517 69.176 72.448 66.1949C72.3482 63.331 72.4777 59.6211 73.4113 56.5962C74.3476 53.5621 75.9274 51.6441 78.5143 51.3974V48.6031C75.9274 48.3567 74.348 46.4387 73.4113 43.4042C72.4777 40.3794 72.3482 36.6694 72.448 33.8055C72.5517 30.8239 70.229 28.0747 67.0886 28.0747H34.9153ZM60.3402 55.0623C60.3402 59.1678 57.2768 61.6567 52.1935 61.6567H42.8213C42.7644 61.6567 42.7097 61.6341 42.6694 61.5938C42.6292 61.5535 42.6065 61.4989 42.6065 61.4419V38.5493C42.6065 38.5211 42.612 38.4931 42.6228 38.467C42.6335 38.4408 42.6493 38.4171 42.6693 38.3971C42.6892 38.3771 42.7129 38.3613 42.739 38.3504C42.7651 38.3396 42.7931 38.3341 42.8213 38.3341H52.144C56.383 38.3341 59.1646 40.6292 59.1646 44.1528C59.1646 46.626 57.2934 48.8397 54.909 49.2278V49.3573C58.1544 49.713 60.3402 51.9596 60.3402 55.0623ZM51.2498 41.292H46.3157V48.2579H50.4719C53.684 48.2579 55.4555 46.9651 55.4555 44.6537C55.4555 42.4881 53.9325 41.292 51.2498 41.292V41.292ZM46.3157 51.022V58.6992H51.4322C54.7769 58.6992 56.5488 57.3579 56.5488 54.8361C56.5488 52.3148 54.7275 51.022 51.217 51.022H46.3157Z" fill="#7952B3"/>
</svg>
