<svg width="101" height="100" viewBox="0 0 101 100" fill="none" xmlns="http://www.w3.org/2000/svg">
<path d="M25.7887 92.8013L1.07735 50L25.7887 7.19873H75.2113L99.9226 50L75.2113 92.8013H25.7887Z" fill="#FDF6F6" stroke="#C22522"/>
<path d="M23.4354 21.386C21.0531 22.2338 20.3644 25.1339 22.137 26.8852C23.6951 28.4245 26.3032 28.101 27.3871 26.2382L27.7258 25.6693L33.371 25.6582H39.0163L37.6614 26.3051C35.2565 27.4652 32.6823 29.183 32.3549 29.8746C32.0049 30.5884 32.5468 31.3916 33.371 31.3916C33.642 31.3916 33.992 31.202 34.7597 30.6331C37.7066 28.4691 41.2518 26.9298 44.8987 26.2159C45.5761 26.0932 46.2422 25.9594 46.389 25.9259C46.626 25.8813 46.6374 25.9147 46.6374 26.4948C46.6374 27.0079 46.6825 27.164 46.9648 27.4652L47.2922 27.8333L49.9455 27.8668L52.61 27.9002L52.9713 27.5768C53.2987 27.2979 53.3439 27.164 53.3891 26.5729C53.4342 25.937 53.4569 25.8924 53.6827 25.937C53.8068 25.9594 54.473 26.0932 55.1504 26.2159C58.7973 26.9298 62.3425 28.4691 65.2893 30.6331C66.0571 31.202 66.407 31.3916 66.678 31.3916C67.5022 31.3916 68.0442 30.5884 67.6941 29.8746C67.3667 29.183 64.7925 27.4652 62.3876 26.3051L61.0328 25.6582H66.678L72.3233 25.6693L72.662 26.2382C74.0056 28.536 77.4943 28.3353 78.6234 25.8924C78.9621 25.1785 78.9621 23.9069 78.6234 23.1931C77.4943 20.7502 74.0056 20.5494 72.662 22.8473L72.3233 23.4161L62.8844 23.4273H53.4342L53.3891 22.6353C53.3553 21.8991 53.3214 21.8099 52.9713 21.5087L52.61 21.1852L49.9455 21.2187L47.2922 21.2522L46.9648 21.6203C46.6712 21.9437 46.6374 22.0664 46.6374 22.7022V23.4273H37.1759H27.7258L27.4548 22.9253C26.7209 21.5645 24.9031 20.8729 23.4354 21.386ZM25.2983 23.8177C25.6935 24.2193 25.6822 24.8774 25.2644 25.2901C24.587 25.9705 23.4354 25.502 23.4354 24.5539C23.4354 23.5611 24.5757 23.1038 25.2983 23.8177ZM51.1536 24.5427V25.6582H50.0245H48.8955V24.5427V23.4273H50.0245H51.1536V24.5427ZM76.3314 23.8177C76.7266 24.2193 76.7153 24.8774 76.2975 25.2901C75.6201 25.9705 74.4685 25.502 74.4685 24.5539C74.4685 23.5611 75.6088 23.1038 76.3314 23.8177Z" fill="#C22522"/>
<path d="M29.7595 32.4506C29.0595 32.7407 28.845 33.6776 29.3757 34.1907C29.5337 34.3469 29.8498 34.5031 30.0757 34.5476C30.437 34.6034 30.5386 34.5588 30.8886 34.2131C31.4192 33.6888 31.4305 33.2537 30.8999 32.7295C30.516 32.3502 30.2111 32.2722 29.7595 32.4506Z" fill="#C22522"/>
<path d="M49.461 32.5069C49.2577 32.6185 47.6207 35.4852 43.4319 43.0703C40.2592 48.7925 37.6511 53.6 37.6286 53.7563C37.6059 53.9347 38.3511 56.0429 39.627 59.3893C40.756 62.3229 41.6705 64.788 41.6705 64.8549C41.6705 64.933 41.5351 65.0668 41.3657 65.1561C40.8915 65.4015 40.2253 66.3273 40.0222 67.0189C39.5818 68.4913 40.2705 70.1422 41.6141 70.8449L42.1221 71.1126V74.3139V77.5264L42.4495 77.8833L42.777 78.2515L49.9578 78.2849L57.1272 78.3072L57.4999 77.9837L57.8724 77.6603L57.9063 74.3697L57.9401 71.0791L58.2789 70.9453C58.787 70.7333 59.6111 69.8967 59.8596 69.3167C60.5144 67.8778 60.0176 66.0261 58.7756 65.2342C58.5612 65.0892 58.3805 64.9219 58.3805 64.8549C58.3805 64.7768 59.2951 62.3229 60.4241 59.3893C61.6999 56.0429 62.4451 53.9347 62.4225 53.7563C62.3999 53.6 59.7918 48.7925 56.6192 43.0703C52.1143 34.9052 50.8046 32.6296 50.5675 32.5069C50.1836 32.3173 49.8223 32.3173 49.461 32.5069ZM48.8965 44.3084L48.8851 50.6999L48.3094 51.0346C45.9835 52.3619 46.1868 55.8087 48.6593 56.9241C49.3819 57.2588 50.6691 57.2588 51.3917 56.9241C53.8643 55.8087 54.0675 52.3619 51.7416 51.0346L51.1659 50.6999V44.2861C51.1659 38.7534 51.1884 37.9057 51.3239 38.1511C51.403 38.3073 53.2546 41.6424 55.4337 45.5688L59.3854 52.7077L57.8498 52.7635L56.3256 52.8192L55.9982 53.1874C55.5692 53.6559 55.5692 54.102 55.9982 54.5705L56.3256 54.9386L57.974 54.972C58.8773 54.9944 59.6225 55.0501 59.6225 55.0836C59.6225 55.1282 58.8208 57.2699 57.8273 59.8466L56.0434 64.5315H50.0255H44.0076L42.2238 59.8466C41.2302 57.2699 40.4286 55.1282 40.4286 55.0724C40.4286 55.0279 41.1399 54.9944 42.0093 54.9944H43.5899L43.9512 54.6709C44.448 54.2359 44.4706 53.5778 44.0076 53.1316C43.7029 52.8304 43.6463 52.8192 42.1899 52.7635L40.6657 52.7077L44.7528 45.3234C46.9996 41.252 48.8513 37.9281 48.8739 37.9281C48.8851 37.9281 48.8965 40.8059 48.8965 44.3084ZM50.8158 53.1539C51.211 53.5555 51.1998 54.2136 50.782 54.6263C50.1046 55.3067 48.9529 54.8382 48.9529 53.89C48.9529 52.8973 50.0933 52.44 50.8158 53.1539ZM57.5337 67.1639C57.6918 67.3201 57.8498 67.6324 57.895 67.8555C57.9514 68.2124 57.9063 68.3128 57.5563 68.6586L57.1611 69.049L49.9803 69.0267L42.7996 68.9933L42.5173 68.7032C42.3592 68.547 42.2012 68.2348 42.156 68.0117C42.0996 67.6547 42.1448 67.5543 42.4947 67.2085L42.8899 66.8181L50.0707 66.8404L57.2514 66.8739L57.5337 67.1639ZM55.6708 73.6781V76.0763H50.0255H44.3802V73.6781V71.2799H50.0255H55.6708V73.6781Z" fill="#C22522"/>
<path d="M69.4909 32.4631C69.1296 32.6081 68.7683 33.1212 68.7683 33.4781C68.7683 33.9243 69.2876 34.4597 69.7957 34.5378C70.1457 34.5936 70.2699 34.549 70.586 34.2701C70.9021 33.9912 70.9699 33.8574 70.9699 33.467C70.9699 33.0766 70.9021 32.9427 70.5974 32.675C70.2247 32.3515 69.9199 32.2846 69.4909 32.4631Z" fill="#C22522"/>
<path d="M27.0833 36.1988C26.7446 36.3885 25.8075 38.1175 25.1301 39.8241C24.6333 41.0957 24.0462 43.1704 23.7752 44.6317L23.5833 45.7136L22.68 45.7583C21.8332 45.7917 21.7655 45.814 21.4494 46.1598L21.1219 46.5167V49.0823V51.6478L21.4494 52.0048L21.7768 52.3729L24.4526 52.4063L27.1172 52.4398L27.5011 52.0605L27.8963 51.6701V49.0823V46.4944L27.5124 46.1152C27.1624 45.7694 27.0608 45.7359 26.4849 45.7359C25.9317 45.7359 25.8527 45.7136 25.9091 45.5351C25.943 45.4347 26.022 45.0221 26.0898 44.6205C26.2478 43.6723 26.8124 41.7092 27.1737 40.8057C27.3317 40.4264 27.7608 39.4783 28.1334 38.7086C28.7543 37.4035 28.7882 37.292 28.6753 36.8904C28.5963 36.6004 28.4382 36.3996 28.2011 36.2547C27.7721 35.9981 27.5011 35.987 27.0833 36.1988ZM25.6381 49.0823V50.1977H24.5091H23.38V49.0823V47.9668H24.5091H25.6381V49.0823Z" fill="#C22522"/>
<path d="M71.8511 36.2546C71.6141 36.3996 71.4559 36.6004 71.3769 36.8904C71.264 37.292 71.2979 37.4035 71.9188 38.7086C72.2914 39.4782 72.7205 40.4263 72.8785 40.8056C73.2399 41.7091 73.8044 43.6723 73.9625 44.6204C74.0302 45.022 74.1092 45.4236 74.1431 45.524C74.1883 45.6801 74.0753 45.7136 73.4996 45.7582C72.8898 45.8028 72.7544 45.8474 72.4834 46.1597L72.1559 46.5167V49.0822V51.6478L72.4834 52.0047L72.8108 52.3728L75.464 52.4063L78.1286 52.4398L78.5012 52.1051L78.8738 51.7816V49.0822V46.3828L78.5012 46.0593C78.1625 45.7582 78.0609 45.7359 77.2931 45.7359H76.4577L76.3899 45.312C75.9835 42.7576 75.1818 40.2033 74.0753 37.9612C73.4544 36.7008 73.2173 36.3438 72.9576 36.1988C72.5172 35.9757 72.2914 35.9869 71.8511 36.2546ZM76.6722 49.0822V50.1977H75.5431H74.4141V49.0822V47.9668H75.5431H76.6722V49.0822Z" fill="#C22522"/>
</svg>
