<svg width="101" height="100" viewBox="0 0 101 100" fill="none" xmlns="http://www.w3.org/2000/svg">
<path d="M25.7887 92.8013L1.07735 50L25.7887 7.19873H75.2113L99.9226 50L75.2113 92.8013H25.7887Z" fill="#F8FAFC" stroke="#E2E8F0"/>
<path d="M73.0172 57.3277C72.8903 57.3277 72.7643 57.2945 72.6532 57.2297L71.4938 56.5437C71.3206 56.4471 71.405 56.4125 71.4623 56.3928C71.6933 56.3123 71.7401 56.2935 71.9864 56.1544C72.0122 56.1399 72.0459 56.1452 72.0726 56.1609L72.9629 56.6899C72.9795 56.6987 72.998 56.7033 73.0167 56.7033C73.0355 56.7033 73.054 56.6987 73.0706 56.6899L76.543 54.6857C76.5593 54.676 76.5729 54.6623 76.5822 54.6458C76.5916 54.6293 76.5965 54.6106 76.5964 54.5916V50.5841C76.5964 50.5649 76.5915 50.5459 76.582 50.5292C76.5726 50.5124 76.559 50.4983 76.5426 50.4883L73.0714 48.4859C73.055 48.4768 73.0366 48.4721 73.0178 48.4721C72.9991 48.4721 72.9807 48.4768 72.9642 48.4859L69.4936 50.4887C69.4771 50.4987 69.4634 50.5127 69.4539 50.5293C69.4443 50.546 69.4391 50.5649 69.4389 50.5841V54.5916C69.4389 54.6301 69.4603 54.6664 69.4936 54.6844L70.4447 55.2343C70.9609 55.492 71.2772 55.1884 71.2772 54.883V50.9258C71.2772 50.8702 71.3223 50.8261 71.3779 50.8261H71.8184C71.8731 50.8261 71.9186 50.8702 71.9186 50.9258V54.883C71.9186 55.5716 71.5437 55.9667 70.8905 55.9667C70.6897 55.9667 70.5317 55.9667 70.0907 55.7497L69.1803 55.2256C69.0696 55.161 68.9777 55.0685 68.9138 54.9574C68.8499 54.8462 68.8163 54.7203 68.8163 54.5921V50.5846C68.8163 50.3242 68.955 50.0814 69.1803 49.9519L72.6527 47.9451C72.7646 47.8842 72.89 47.8523 73.0174 47.8523C73.1448 47.8523 73.2702 47.8842 73.3821 47.9451L76.8545 49.9519C77.0794 50.0819 77.2189 50.3247 77.2189 50.5846V54.5921C77.2187 54.7203 77.185 54.8462 77.121 54.9573C77.0571 55.0684 76.9652 55.1609 76.8545 55.2256L73.3821 57.2302C73.2712 57.2945 73.1453 57.3282 73.0172 57.3277ZM74.0904 54.5667C72.5701 54.5667 72.252 53.8689 72.252 53.2839C72.2521 53.2573 72.2628 53.2318 72.2816 53.2131C72.3005 53.1943 72.326 53.1837 72.3526 53.1837H72.8015C72.8255 53.1837 72.8488 53.1922 72.8671 53.2077C72.8854 53.2233 72.8975 53.2449 72.9012 53.2686C72.9686 53.7258 73.1712 53.9564 74.0904 53.9564C74.8214 53.9564 75.1329 53.791 75.1329 53.4025C75.1329 53.1785 75.0446 53.0127 73.9079 52.9011C72.9577 52.807 72.3701 52.5975 72.3701 51.8367C72.3701 51.1362 72.9607 50.718 73.9504 50.718C75.0629 50.718 75.6133 51.1043 75.6829 51.9329C75.684 51.9469 75.6822 51.9609 75.6777 51.9741C75.6732 51.9874 75.666 51.9996 75.6566 52.0099C75.6471 52.0199 75.6357 52.0278 75.6231 52.0333C75.6105 52.0388 75.5969 52.0417 75.5831 52.0419H75.1321C75.1093 52.0419 75.0872 52.0341 75.0695 52.0199C75.0517 52.0057 75.0394 51.9858 75.0345 51.9636C74.926 51.4823 74.6635 51.3287 73.9499 51.3287C73.1515 51.3287 73.0587 51.6074 73.0587 51.8152C73.0587 52.0677 73.1681 52.1412 74.2466 52.2838C75.3136 52.4251 75.8207 52.6246 75.8207 53.3749C75.8211 54.1331 75.1902 54.5667 74.0904 54.5667M65.8671 51.9382C66.0041 51.8581 66.0885 51.712 66.0885 51.5532V50.5233C66.0885 50.3649 66.0045 50.2188 65.8671 50.1387L62.2079 48.0142C62.1402 47.9749 62.0634 47.9541 61.9851 47.9539C61.9068 47.9538 61.8299 47.9743 61.7621 48.0134L58.0801 50.1392C58.0125 50.1783 57.9565 50.2344 57.9175 50.302C57.8785 50.3695 57.8579 50.4462 57.8578 50.5242V54.7749C57.8578 54.9346 57.9436 55.0825 58.0827 55.1617L61.7415 57.2464C61.8762 57.3238 62.0416 57.3242 62.1777 57.249L64.3906 56.0187C64.425 55.9996 64.4538 55.9717 64.4739 55.9378C64.494 55.9039 64.5047 55.8653 64.505 55.8259C64.5052 55.7865 64.495 55.7478 64.4754 55.7136C64.4557 55.6795 64.4274 55.6511 64.3932 55.6316L60.6884 53.5053C60.6545 53.4859 60.6262 53.4579 60.6065 53.4241C60.5869 53.3903 60.5765 53.3519 60.5764 53.3128V51.9802C60.5764 51.9006 60.6189 51.8275 60.6876 51.7881L61.8412 51.1231C61.8749 51.1036 61.9132 51.0933 61.9522 51.0933C61.9911 51.0933 62.0294 51.1036 62.0631 51.1231L63.2167 51.7881C63.2506 51.8075 63.2787 51.8355 63.2983 51.8692C63.3179 51.9029 63.3282 51.9412 63.3283 51.9802V53.0284C63.3281 53.0676 63.3382 53.1062 63.3578 53.1402C63.3773 53.1742 63.4055 53.2024 63.4394 53.2219C63.4734 53.2415 63.5119 53.2517 63.5511 53.2515C63.5903 53.2514 63.6288 53.2408 63.6626 53.2209L65.8671 51.9382M61.9305 51.7387C61.9435 51.7314 61.9582 51.7276 61.9732 51.7276C61.9881 51.7276 62.0028 51.7314 62.0158 51.7387L62.7224 52.1469C62.7486 52.1622 62.7648 52.1906 62.7648 52.2208V53.0367C62.7648 53.0674 62.7486 53.0954 62.7224 53.1107L62.0158 53.5184C62.0029 53.526 61.9881 53.5299 61.9732 53.5299C61.9582 53.5299 61.9435 53.526 61.9305 53.5184L61.2244 53.1107C61.2113 53.1032 61.2005 53.0925 61.1929 53.0795C61.1854 53.0665 61.1815 53.0518 61.1815 53.0367V52.2208C61.1815 52.1906 61.1977 52.1622 61.2244 52.1469L61.9305 51.7387ZM52.3488 53.4362C52.3488 53.4755 52.3278 53.5123 52.2932 53.5324L51.0289 54.2613C51.012 54.2712 50.9928 54.2764 50.9733 54.2764C50.9538 54.2764 50.9346 54.2712 50.9177 54.2613L49.6534 53.5324C49.6365 53.5226 49.6225 53.5086 49.6128 53.4917C49.603 53.4748 49.5979 53.4557 49.5978 53.4362V51.9758C49.5978 51.9364 49.6192 51.8992 49.6534 51.8791L50.9177 51.1494C50.9346 51.1393 50.9539 51.1339 50.9735 51.1339C50.9932 51.1339 51.0125 51.1393 51.0293 51.1494L52.2941 51.8791C52.3109 51.8891 52.3248 51.9032 52.3344 51.9202C52.3441 51.9371 52.3492 51.9563 52.3492 51.9758V53.4362H52.3488ZM52.6905 42.6229C52.6566 42.6044 52.6185 42.595 52.5798 42.5956C52.5412 42.5962 52.5034 42.6068 52.4701 42.6263C52.4368 42.6459 52.4091 42.6738 52.3898 42.7072C52.3704 42.7407 52.3601 42.7785 52.3597 42.8172V48.4675C52.3596 48.4947 52.3524 48.5215 52.3389 48.5451C52.3253 48.5687 52.3058 48.5884 52.2823 48.6022C52.2586 48.6158 52.2317 48.6229 52.2044 48.6229C52.1771 48.6229 52.1503 48.6158 52.1266 48.6022L51.2043 48.0707C51.1368 48.0318 51.0602 48.0113 50.9823 48.0113C50.9043 48.0113 50.8278 48.0318 50.7602 48.0707L47.0774 50.196C47.0097 50.2351 46.9535 50.2913 46.9144 50.359C46.8753 50.4266 46.8547 50.5034 46.8547 50.5815V54.8335C46.8547 54.9924 46.9396 55.1389 47.0769 55.219L50.7598 57.3457C50.8972 57.4253 51.0669 57.4253 51.2048 57.3457L54.8885 55.219C54.956 55.1798 55.0121 55.1236 55.0511 55.0559C55.0901 54.9883 55.1107 54.9116 55.1108 54.8335V44.2342C55.1108 44.0732 55.0232 43.9245 54.8828 43.8457L52.6905 42.6229M39.7291 47.9906C39.7967 47.9515 39.8733 47.9309 39.9514 47.9309C40.0294 47.9309 40.1061 47.9515 40.1736 47.9906L43.8565 50.1156C43.9939 50.1952 44.0787 50.3422 44.0787 50.501V54.7544C44.0787 54.9132 43.9939 55.0602 43.8565 55.1398L40.1741 57.2665C40.1064 57.3054 40.0297 57.3259 39.9516 57.3259C39.8735 57.3259 39.7968 57.3054 39.7291 57.2665L36.0476 55.1398C35.98 55.1006 35.924 55.0444 35.885 54.9768C35.846 54.9091 35.8254 54.8324 35.8253 54.7544V50.5005C35.8253 50.3422 35.9102 50.1952 36.0476 50.1156L39.7291 47.9906M33.0319 50.4656C33.0319 50.3054 32.9479 50.1584 32.8096 50.0792L29.1281 47.9604C29.0662 47.9246 28.9965 47.9046 28.9251 47.9022H28.887C28.8156 47.9046 28.7459 47.9246 28.684 47.9604L25.002 50.0792C24.9343 50.1184 24.878 50.1748 24.8389 50.2426C24.7999 50.3104 24.7793 50.3873 24.7793 50.4656L24.7872 56.1705C24.7872 56.2502 24.8288 56.3241 24.8983 56.3626C24.9316 56.3828 24.9698 56.3935 25.0088 56.3935C25.0477 56.3935 25.0859 56.3828 25.1193 56.3626L27.3068 55.1096C27.445 55.0274 27.5294 54.8825 27.5294 54.7237V52.0585C27.5294 51.8992 27.6134 51.7527 27.7513 51.673L28.6831 51.1367C28.7505 51.0971 28.8273 51.0764 28.9054 51.0767C28.9815 51.0767 29.0594 51.096 29.1272 51.1367L30.0582 51.673C30.196 51.7527 30.2809 51.8992 30.2809 52.0585V54.7237C30.2809 54.8825 30.3662 55.0282 30.5036 55.1096L32.6911 56.3626C32.7248 56.3819 32.763 56.392 32.8018 56.3919C32.8407 56.3918 32.8788 56.3815 32.9125 56.3621C32.9461 56.3427 32.9741 56.3147 32.9936 56.2811C33.0131 56.2475 33.0234 56.2094 33.0236 56.1705L33.0319 50.4656" fill="#83CD29"/>
</svg>
