<svg width="100" height="100" viewBox="0 0 100 100" fill="none" xmlns="http://www.w3.org/2000/svg">
<path d="M25.2887 92.8013L0.57735 50L25.2887 7.19873H74.7113L99.4226 50L74.7113 92.8013H25.2887Z" fill="#F8FAFC" stroke="#E2E8F0"/>
<path d="M33.6 40.95H45.65V41.9H34.7V49.1H45V50.05H34.7V57.95H45.8V58.9H33.6V40.95ZM46.75 40.95H48.05L53.75 48.85L59.5 40.95L67.4 30.95L54.4 49.7L61.1 58.9H59.75L53.7 50.5L47.6 58.9H46.3L53.05 49.7L46.75 40.95V40.95ZM61.6 41.9V40.95H75.35V41.9H69V58.9H67.9V41.9H61.6ZM18.5 40.95H19.85L38.95 69.35L31.05 58.9L19.65 42.3L19.6 58.9H18.5V40.95ZM75.25 57.65C75.5 57.65 75.65 57.5 75.65 57.25C75.65 57 75.5 56.85 75.25 56.85C75 56.85 74.85 57 74.85 57.25C74.85 57.5 75.05 57.65 75.25 57.65ZM76.35 56.6C76.35 57.25 76.85 57.7 77.55 57.7C78.3 57.7 78.75 57.25 78.75 56.45V53.7H78.15V56.45C78.15 56.9 77.95 57.1 77.55 57.1C77.2 57.1 76.95 56.9 76.95 56.55H76.35V56.6ZM79.5 56.55C79.55 57.25 80.1 57.7 81 57.7C81.9 57.7 82.5 57.25 82.5 56.5C82.5 55.9 82.15 55.6 81.4 55.4L80.95 55.3C80.45 55.2 80.25 55 80.25 54.75C80.25 54.4 80.55 54.15 81.05 54.15C81.5 54.15 81.8 54.35 81.85 54.75H82.45C82.4 54.1 81.85 53.65 81.05 53.65C80.2 53.65 79.65 54.1 79.65 54.8C79.65 55.35 79.95 55.7 80.65 55.85L81.15 55.95C81.65 56.05 81.9 56.25 81.9 56.55C81.9 56.9 81.55 57.15 81.05 57.15C80.55 57.15 80.15 56.9 80.1 56.55H79.5V56.55Z" fill="#1E293B"/>
</svg>
