<svg width="101" height="100" viewBox="0 0 101 100" fill="none" xmlns="http://www.w3.org/2000/svg">
<path d="M25.7887 92.8013L1.07735 50L25.7887 7.19873H75.2113L99.9226 50L75.2113 92.8013H25.7887Z" fill="#FDF6F6" stroke="#C22522"/>
<path d="M28.2463 25.5579C26.5409 25.9557 25.035 27.6364 24.6261 29.5756C24.4067 30.6098 24.4067 59.1611 24.6261 60.1854C25.0549 62.2041 26.5708 63.855 28.346 64.2229C29.0043 64.3622 35.1277 64.3721 35.4867 64.2329C36.0951 64.0042 36.2746 63.1191 35.8059 62.6517L35.5466 62.3931L32.0759 62.3434C28.745 62.2937 28.5954 62.2837 28.2064 62.0749C27.6479 61.7766 27.0196 61.0506 26.7504 60.3644L26.521 59.8075V50.2606V40.7137L48.1924 40.6838L69.8539 40.6639V45.7357V50.8076H69.4848C69.0261 50.8076 68.308 51.1257 67.949 51.4639L67.6797 51.7224L67.0016 51.4241C66.6226 51.265 66.2137 51.0959 66.094 51.0661C65.9244 51.0164 65.8646 50.897 65.8148 50.4793C65.6951 49.6042 65.2662 48.9777 64.5283 48.5998C64.0495 48.3512 62.3043 48.2418 61.4266 48.4109C60.3396 48.6098 59.6215 49.3755 59.5118 50.4396L59.4619 50.9666L58.5743 51.3446L57.6867 51.7224L57.3775 51.454C56.839 51.0164 56.48 50.8771 55.8417 50.8771C55.4328 50.8771 55.1236 50.9368 54.8444 51.086C54.3059 51.3644 52.6503 53.055 52.4509 53.5125C52.1417 54.2683 52.3611 55.3622 52.9495 55.9788L53.1988 56.2373L52.8099 57.1224L52.421 58.0174L51.8924 58.0672C51.274 58.1368 50.8652 58.3257 50.4962 58.7335C49.9676 59.3003 49.8679 59.6086 49.8279 61.0207L49.7881 62.3434H46.6964H43.6048L43.3156 62.6318C42.8269 63.1191 42.9665 63.9047 43.5948 64.2229C43.7444 64.3025 45.1506 64.3324 48.1326 64.3324H52.4509L52.8299 65.2273L53.2188 66.1323L52.9196 66.4605C52.2913 67.1765 52.1417 68.2108 52.5606 69.0262C52.8199 69.5334 54.4056 71.0649 54.9043 71.2936C55.5226 71.5721 56.2307 71.5522 56.859 71.2439C57.1382 71.1047 57.4374 70.9058 57.5272 70.8063C57.6867 70.6273 57.7266 70.6373 58.5743 70.9853L59.4619 71.3433L59.5716 71.9897C59.7113 72.8251 60.0703 73.3323 60.7684 73.7002C61.267 73.9588 61.3668 73.9787 62.5935 73.9787C63.3115 73.9787 64.0695 73.929 64.2789 73.8693C65.1166 73.6107 65.735 72.8052 65.8347 71.8306C65.8646 71.5323 65.9444 71.2936 66.0043 71.2936C66.0641 71.2936 66.473 71.1345 66.9118 70.9456L67.6996 70.5975L68.0088 70.8959C68.6371 71.5024 69.7142 71.6715 70.5021 71.2936C71.0207 71.045 72.6961 69.3544 72.8956 68.8771C73.2148 68.1014 73.0252 67.0671 72.4468 66.4704L72.1476 66.1622L72.4967 65.3765C72.6862 64.9389 72.8457 64.5213 72.8457 64.4516C72.8457 64.3821 72.9854 64.3324 73.2048 64.3324C73.8531 64.3324 74.3716 64.1135 74.8404 63.6362C75.4288 63.0495 75.5385 62.6616 75.5385 61.0704C75.5385 59.8473 75.5185 59.7478 75.2592 59.2506C74.8803 58.5247 74.3417 58.1567 73.5439 58.0771L72.9255 58.0174L72.6961 57.4108C72.5665 57.0727 72.397 56.665 72.3072 56.4959C72.1676 56.2274 72.1676 56.1876 72.3072 56.0683C72.397 55.9987 72.5964 55.7103 72.756 55.4318C73.2846 54.5169 73.125 53.5224 72.2972 52.6075L71.9582 52.2395L71.9283 41.0518L71.8983 29.8739L71.6291 29.0684C71.1603 27.7159 70.183 26.4728 69.1757 25.9557C68.1285 25.4187 69.1757 25.4485 48.1126 25.4585C37.222 25.4684 28.4458 25.5082 28.2463 25.5579ZM67.8892 27.5966C68.4975 27.8054 69.1457 28.4319 69.5148 29.1877L69.8039 29.7745L69.8339 34.2197L69.8638 38.675H48.1625H26.4611L26.4911 34.3192C26.521 30.0728 26.531 29.9634 26.7504 29.4165C27.1194 28.5015 27.8574 27.7756 28.6652 27.527C28.8048 27.4872 37.5811 27.4474 48.1724 27.4474C65.5555 27.4375 67.4703 27.4574 67.8892 27.5966ZM63.7703 51.1257C63.7703 51.6131 63.8301 51.9611 63.9498 52.1998C64.0994 52.518 64.2091 52.5777 65.0668 52.8561C65.5854 53.0252 66.3832 53.3534 66.832 53.5722C67.2908 53.8009 67.7595 53.9898 67.8892 53.9898C68.1684 53.9898 68.4676 53.7909 69.0859 53.2042L69.5547 52.7567L70.3027 53.4926C70.7115 53.9004 71.0506 54.2782 71.0506 54.3379C71.0506 54.3976 70.8312 54.6661 70.5519 54.9346C70.2827 55.2031 70.0035 55.571 69.9436 55.75C69.8439 56.0583 69.8738 56.1677 70.3326 57.1026C70.6118 57.6594 70.9309 58.4351 71.0406 58.8229C71.3398 59.8274 71.5393 59.9865 72.6263 60.0561L73.494 60.1058L73.5239 61.0904C73.5439 61.7268 73.5139 62.1147 73.4342 62.2041C73.3543 62.3036 73.0851 62.3434 72.5465 62.3434C71.5094 62.3434 71.3598 62.4627 71.0007 63.6064C70.8511 64.0936 70.532 64.8693 70.2827 65.3467C69.8738 66.1323 69.8439 66.2317 69.9436 66.54C70.0035 66.729 70.2827 67.097 70.5519 67.3655C70.8312 67.634 71.0506 67.9025 71.0506 67.9621C71.0506 68.0914 69.6344 69.5036 69.4948 69.5036C69.4449 69.5036 69.1557 69.2549 68.8566 68.9566C68.1185 68.2108 67.939 68.1909 66.8819 68.7378C66.4031 68.9865 65.6253 69.3047 65.1466 69.4439C63.9996 69.792 63.87 69.9511 63.87 70.9953C63.87 71.5323 63.8301 71.8008 63.7304 71.8804C63.6406 71.9599 63.2517 71.9897 62.6134 71.9699L61.6261 71.94L61.5762 71.0749C61.5064 69.9909 61.3468 69.792 60.3396 69.4936C59.9506 69.3743 59.1827 69.0561 58.6342 68.7875C57.7266 68.3301 57.6169 68.3002 57.2878 68.3997C57.0983 68.4594 56.7193 68.7279 56.4401 69.0064C56.1708 69.2748 55.9016 69.5036 55.8417 69.5036C55.7819 69.5036 55.4129 69.1754 55.004 68.7677C54.1962 67.9621 54.1762 67.8528 54.7846 67.4251C55.1436 67.1666 55.4927 66.6196 55.4927 66.3213C55.4927 66.192 55.2932 65.7047 55.0539 65.2373C54.8145 64.7699 54.5153 64.0439 54.3956 63.6362C54.0665 62.5523 53.897 62.4031 52.8199 62.3434L51.9523 62.2937L51.9223 61.1699L51.8924 60.0561H52.6204C53.1091 60.0561 53.4582 59.9965 53.6975 59.8771C54.0166 59.7279 54.0765 59.6185 54.3956 58.6638C54.5951 58.0871 54.9242 57.3114 55.1236 56.9335C55.3231 56.5556 55.4927 56.1578 55.4927 56.0583C55.4927 55.76 55.2433 55.3622 54.7547 54.8849C54.5053 54.6462 54.2959 54.3976 54.2959 54.3479C54.2959 54.1788 55.6223 52.8959 55.7918 52.8959C55.8816 52.8959 56.131 53.0749 56.3404 53.3037C56.7991 53.7711 57.1781 53.9898 57.5272 53.9898C57.6568 53.9898 58.1555 53.7909 58.6142 53.5523C59.083 53.3037 59.791 53.0053 60.2 52.8959C60.6986 52.7468 61.0177 52.5877 61.2072 52.3887C61.4566 52.1203 61.4765 52.0307 61.4765 51.3247C61.4765 50.897 61.5064 50.5092 61.5463 50.4793C61.5762 50.4396 62.0948 50.4097 62.6932 50.4097H63.7703V51.1257Z" fill="#C22522"/>
<path d="M32.9542 29.8742C32.3359 30.0433 31.4981 30.5803 31.189 30.998C30.6305 31.7537 30.5108 32.1217 30.5108 33.1063C30.5108 33.8919 30.5507 34.1305 30.7402 34.5084C31.1092 35.2543 31.6079 35.7515 32.3259 36.1095C32.9143 36.3979 33.0938 36.4377 33.8019 36.4377C34.4701 36.4377 34.6995 36.388 35.1981 36.1593C35.9661 35.8012 36.6642 35.0654 36.9434 34.3195C37.2426 33.5438 37.1927 32.3703 36.8437 31.6643C36.1456 30.2322 34.4601 29.4665 32.9542 29.8742ZM34.6696 32.0819C35.2779 32.6289 35.2978 33.5338 34.7194 34.0709C34.2607 34.4885 33.782 34.5781 33.2833 34.3394C32.3558 33.8819 32.1863 32.7581 32.9442 32.072C33.3531 31.6941 34.2507 31.704 34.6696 32.0819Z" fill="#C22522"/>
<path d="M41.7191 29.8537C39.9938 30.341 38.9367 31.9719 39.2458 33.6725C39.4553 34.8062 40.1334 35.6713 41.2205 36.1785C42.0084 36.5464 43.1254 36.5464 43.9332 36.1686C44.6512 35.8404 45.2695 35.2337 45.6086 34.5078C45.8281 34.0404 45.8679 33.8116 45.8679 33.1056C45.8679 32.3796 45.8281 32.1807 45.5887 31.6934C44.8906 30.2713 43.1652 29.4459 41.7191 29.8537ZM43.4246 32.1012C44.0229 32.5387 44.0529 33.4934 43.4844 34.0603C43.0455 34.4979 42.5668 34.5774 42.0084 34.3089C41.4698 34.0503 41.2305 33.6625 41.2305 33.0658C41.2305 32.6879 41.2903 32.5487 41.5596 32.2504C42.0682 31.6934 42.8062 31.6338 43.4246 32.1012Z" fill="#C22522"/>
<path d="M53.6675 29.8344C51.623 30.3117 50.4662 32.5791 51.2939 34.4587C51.5732 35.0752 52.3311 35.841 52.9893 36.1592L53.5478 36.4376H58.8335C64.1192 36.4376 64.1192 36.4376 64.6079 36.2089C65.3658 35.8708 65.8944 35.3736 66.2634 34.6874C67.0713 33.1658 66.6225 31.336 65.1863 30.3515C64.3087 29.7449 64.0494 29.725 58.7836 29.7349C56.1807 29.7449 53.8769 29.7846 53.6675 29.8344ZM64.0594 32.0023C64.6677 32.4398 64.8373 33.2255 64.4383 33.8122C63.9796 34.5084 64.0394 34.4984 58.9732 34.4984C56.4699 34.4984 54.2758 34.4686 54.0963 34.4388C53.6675 34.3492 53.1389 33.8122 53.0591 33.3647C52.9694 32.9172 53.2686 32.1813 53.6076 32.0023C54.0963 31.7437 54.4953 31.7239 59.033 31.7437L63.7203 31.7636L64.0594 32.0023Z" fill="#C22522"/>
<path d="M61.1767 55.2424C59.5012 55.68 57.9355 56.943 57.2074 58.4744C56.6888 59.5385 56.5492 60.2843 56.609 61.5771C56.649 62.3827 56.7188 62.7308 56.9381 63.2877C57.6662 65.1075 58.9527 66.3407 60.7977 66.9871C61.7352 67.3252 63.3708 67.365 64.3182 67.0766C66.3926 66.46 67.9983 64.8589 68.6166 62.7904C68.8859 61.8854 68.8659 60.4037 68.5767 59.4589C67.9384 57.4004 66.1632 55.7098 64.1487 55.2325C63.3608 55.0535 61.8948 55.0535 61.1767 55.2424ZM64.408 57.4501C66.981 58.6534 67.5994 61.9352 65.6546 63.9838C63.6799 66.0722 60.2891 65.555 59.0125 62.9694C58.7034 62.3429 58.6436 62.1043 58.6037 61.4081C58.5538 60.3838 58.7333 59.7076 59.2719 58.9021C59.7605 58.1661 60.5185 57.5894 61.3662 57.291C62.3136 56.9628 63.4904 57.0225 64.408 57.4501Z" fill="#C22522"/>
<path d="M40.2634 46.4318C40.1437 46.4815 39.9741 46.6307 39.8844 46.76C39.6949 47.0484 37.7303 55.1434 37.7103 55.7102C37.7003 56.0285 37.7502 56.1478 38.0194 56.3865C38.5879 56.8936 39.3858 56.6848 39.6251 55.9489C39.8545 55.2428 41.6397 47.655 41.6497 47.3666C41.6497 46.9489 41.4901 46.6605 41.1311 46.4815C40.8119 46.3125 40.5925 46.3025 40.2634 46.4318Z" fill="#C22522"/>
<path d="M33.5924 47.2566C33.1735 47.4953 30.3611 50.7472 30.2414 51.1251C30.042 51.7914 30.2215 52.1096 31.8172 53.8996C32.615 54.7947 33.363 55.6101 33.4727 55.6997C33.5924 55.809 33.8417 55.8787 34.091 55.8787C34.6695 55.8787 35.0484 55.4908 35.0484 54.914C35.0484 54.5361 34.9687 54.4168 33.7519 53.0444C33.0439 52.2488 32.4554 51.5527 32.4554 51.513C32.4554 51.4731 32.7148 51.1549 33.0339 50.7969C35.1183 48.45 35.0484 48.5395 35.0484 48.1118C35.0484 47.3561 34.2406 46.8787 33.5924 47.2566Z" fill="#C22522"/>
<path d="M44.6417 47.376C44.2926 47.6743 44.1929 48.0621 44.3724 48.4699C44.4422 48.629 45.0506 49.3748 45.7088 50.1108C46.367 50.8466 46.9155 51.4831 46.9155 51.513C46.9155 51.5527 46.3471 52.2091 45.6589 52.9848C44.163 54.6654 44.0034 55.0434 44.5918 55.6201C44.7813 55.819 44.9508 55.8787 45.26 55.8787C45.4794 55.8787 45.7387 55.819 45.8284 55.7494C46.2673 55.4212 49.0198 52.2091 49.1196 51.9207C49.329 51.2942 49.1694 50.9759 48.0325 49.6831C47.4441 49.0168 46.6762 48.1715 46.3171 47.7936C45.7487 47.2168 45.619 47.1273 45.2999 47.1273C45.0606 47.1273 44.8411 47.2069 44.6417 47.376Z" fill="#C22522"/>
<path d="M39.0277 62.4925C38.4493 62.8107 38.4194 63.6262 38.9679 64.0936C39.2272 64.3124 39.3468 64.3422 39.6759 64.3024C40.2345 64.2229 40.5337 63.8649 40.5337 63.288C40.5337 62.9301 40.4837 62.8206 40.2245 62.6019C39.8854 62.3135 39.4366 62.2737 39.0277 62.4925Z" fill="#C22522"/>
</svg>
