<svg width="100" height="100" viewBox="0 0 100 100" fill="none" xmlns="http://www.w3.org/2000/svg">
<path d="M25.2887 92.8013L0.57735 50L25.2887 7.19873H74.7113L99.4226 50L74.7113 92.8013H25.2887Z" fill="#F8FAFC" stroke="#E2E8F0"/>
<path d="M25.9515 22.875L30.3287 71.9157L49.9707 77.3411L69.6669 71.9218L74.0485 22.875H25.9515ZM64.9441 34.4858L64.6698 37.6236L64.549 39.0625H41.5081L42.058 45.1875H64.0013L63.8543 46.7061L62.4398 62.5081L62.3357 63.5013L50 66.8914V66.8923L49.9851 66.9002L37.6577 63.6526L36.8207 54.375H42.8648L43.2931 59.1521L49.9812 60.9375H50V60.6986L56.7178 59.0033L57.4195 51.3125H36.5517L35.0716 34.6363L34.9277 32.9375H65.0885L64.9441 34.4858Z" fill="#E44D26"/>
</svg>
