<svg width="100" height="100" viewBox="0 0 100 100" fill="none" xmlns="http://www.w3.org/2000/svg">
<path d="M25.2887 92.8013L0.57735 50L25.2887 7.19873H74.7113L99.4226 50L74.7113 92.8013H25.2887Z" fill="#F8FAFC" stroke="#E2E8F0"/>
<path d="M25.8325 22.4375L30.2316 71.8238L49.9707 77.3276L69.765 71.8037L74.1675 22.4375H25.8325ZM65.0286 33.7521L63.5643 50.2043L63.5686 50.2931L63.5625 50.4974V50.4957L62.5221 61.9993L62.4075 63.0213L50 66.4531V66.4535L49.9904 66.4618L37.6043 63.0108L36.7656 53.5H42.8395L43.2704 58.3361L50.0018 60.1605L50 60.164V60.1631L56.7563 58.3129L57.4703 50.4375H43.3465L43.2253 49.1062L42.9493 45.9872L42.8045 44.3125H58.0071L58.5601 38.1875H35.405L35.2838 36.8571L35.0082 33.7372L34.863 32.0625H65.1734L65.0286 33.7521V33.7521Z" fill="#1572B6"/>
</svg>
