<svg width="101" height="100" viewBox="0 0 101 100" fill="none" xmlns="http://www.w3.org/2000/svg">
<path d="M25.7887 92.8013L1.07735 50L25.7887 7.19873H75.2113L99.9226 50L75.2113 92.8013H25.7887Z" fill="#FDF6F6" stroke="#C22522"/>
<path d="M31.0642 21.9406C27.1369 22.8452 23.9929 25.7134 22.8125 29.4862C21.5659 33.4576 22.6801 37.8371 25.6697 40.6833C26.6625 41.621 27.3796 42.1284 28.6151 42.7352C29.255 43.0551 29.4535 43.1985 29.3984 43.3309C29.3653 43.4192 29.2219 43.9487 29.0785 44.5113C28.6041 46.3315 28.4386 47.7656 28.4386 49.9499C28.4386 52.2114 28.6041 53.5351 29.1226 55.5209C29.2991 56.1827 29.4315 56.7453 29.4315 56.7453C29.4204 56.7564 28.9902 56.966 28.4717 57.2307C25.4932 58.709 23.3641 61.4007 22.5478 64.7102C22.4154 65.2287 22.3602 65.9457 22.3602 67.104C22.3492 68.4941 22.3933 68.9133 22.6139 69.7517C22.967 71.1196 23.4192 72.0903 23.7833 72.2558C24.1584 72.4213 24.6107 72.2669 24.8313 71.8807C24.9747 71.605 24.9747 71.5277 24.7872 71.0534C23.684 68.2072 23.684 65.6589 24.8203 63.243C26.0889 60.5292 28.218 58.7531 31.1304 57.992C32.9395 57.5176 35.3665 57.7161 37.1206 58.4994C39.2386 59.4371 41.0698 61.2683 41.9965 63.3753C42.7135 64.997 42.9563 67.5123 42.5481 69.178C41.8531 72.0903 39.9777 74.396 37.275 75.6425C35.8519 76.3044 35.0576 76.4699 33.3257 76.4699C32.1122 76.4699 31.6709 76.4258 30.9539 76.2272C29.7625 75.8852 28.4607 75.2344 27.5451 74.4953C26.6736 73.8113 26.2213 73.712 25.8241 74.1312C25.3388 74.6608 25.5814 75.113 26.8721 76.0728C28.8358 77.5289 31.4613 78.3011 33.9765 78.1577C37.9699 77.9261 41.4559 75.6094 43.2541 72.0131C43.5189 71.4947 43.7285 71.0644 43.7395 71.0534C43.7395 71.0423 44.3021 71.1858 44.975 71.3512C48.4059 72.2338 52.5427 72.2558 55.9074 71.4064C56.4921 71.2519 57.0547 71.1085 57.1539 71.0755C57.3084 71.0313 57.4077 71.1526 57.6063 71.6491C58.4226 73.6789 60.6179 75.9404 62.8352 77.0546C69.0019 80.1655 76.68 76.6023 78.4009 69.8288C78.7649 68.3948 78.787 65.8905 78.434 64.5117C77.6176 61.3124 75.6209 58.7862 72.6975 57.2859C72.1239 56.9991 71.6495 56.7453 71.6385 56.7453C71.6275 56.7344 71.7267 56.2931 71.8812 55.7746C72.8851 52.09 72.874 47.567 71.826 43.9487C71.7047 43.5295 71.6164 43.1764 71.6385 43.1654C71.6495 43.1544 72.0798 42.9337 72.5872 42.68C75.4886 41.2459 77.5956 38.6425 78.4009 35.5094C78.787 34.0202 78.787 31.5712 78.4009 30.0709C77.4632 26.3753 74.6722 23.4298 70.9435 22.1943C70.0389 21.8854 69.9396 21.8744 67.6892 21.8744C65.4387 21.8744 65.3505 21.8854 64.4348 22.1943C62.1071 22.9775 60.309 24.2462 58.8308 26.1657C58.4116 26.7062 57.5401 28.2396 57.3636 28.736C57.3305 28.8243 56.9554 28.7581 56.1059 28.5375C54.1203 28.019 52.7964 27.8535 50.535 27.8535C48.3507 27.8535 46.9166 28.019 45.0964 28.4934C44.5338 28.6368 44.0043 28.7801 43.916 28.8133C43.7947 28.8685 43.6403 28.6478 43.3093 27.9749C41.8972 25.0515 39.2386 22.8893 36.0394 22.0509C35.3113 21.8633 34.848 21.8192 33.3367 21.8303C32.3328 21.8413 31.3068 21.8854 31.0642 21.9406ZM35.6423 23.6394C38.4885 24.3896 40.9154 26.4746 42.0296 29.1552C42.5591 30.4128 42.7356 31.3174 42.7356 32.7405C42.7356 34.8035 42.2061 36.5133 41.0478 38.1901C40.441 39.0727 40.3528 39.525 40.7168 39.856C41.0037 40.1207 41.5332 40.1097 41.831 39.8449C42.2172 39.5029 42.9231 38.3997 43.3755 37.44C44.2139 35.6419 44.5779 33.5789 44.3683 31.7256C44.3021 31.1299 44.247 30.6004 44.247 30.5453C44.247 30.2915 46.9387 29.7179 48.9795 29.5303C51.1969 29.3428 54.0099 29.6185 56.2383 30.2694L56.8451 30.446L56.7789 30.8761C56.1832 34.5718 57.4297 38.3005 60.0774 40.7826C62.5705 43.1103 65.8358 44.1583 69.2998 43.7391L70.0279 43.6508L70.2706 44.5334C71.2193 48.0414 71.2193 51.8032 70.2595 55.3885L70.0389 56.2489L69.2446 56.1606C65.0636 55.6973 61.2246 57.308 58.8198 60.5402C57.6725 62.0736 57.0437 63.6512 56.7458 65.67C56.5913 66.6959 56.5803 67.082 56.6906 68.1411C56.7568 68.836 56.8009 69.4207 56.7789 69.4428C56.6796 69.5421 54.4843 70.0384 53.4473 70.1929C51.9139 70.4246 49.167 70.4246 47.6006 70.1929C46.5526 70.0384 44.3903 69.5421 44.28 69.4317C44.258 69.4096 44.2911 68.8691 44.3573 68.2403C44.7103 64.975 43.5409 61.6875 41.1692 59.3157C38.7091 56.8667 35.4327 55.7525 31.8143 56.1606L31.031 56.2489L30.8546 55.6422C30.2037 53.4248 29.9279 50.6118 30.1155 48.3833C30.303 46.2543 30.8766 43.6618 31.1524 43.6618C31.2297 43.6618 31.7371 43.717 32.2777 43.7832C34.1199 43.9928 36.5027 43.5625 38.1795 42.7241C39.2055 42.2057 39.4482 41.7092 38.9297 41.1577C38.6098 40.8157 38.4002 40.8377 37.2419 41.3342C35.554 42.0623 33.9103 42.316 32.2777 42.1174C30.3471 41.8857 28.4607 41.0143 27.0376 39.7125C24.2797 37.1973 23.2758 33.3252 24.4562 29.773C24.9306 28.3499 25.5373 27.4012 26.7618 26.1767C28.2732 24.6654 29.8286 23.827 31.8033 23.485C32.6307 23.3305 34.7929 23.4188 35.6423 23.6394ZM70.094 23.6836C72.2011 24.2351 74.2199 25.6693 75.4554 27.4784C75.9739 28.2286 76.6248 29.6848 76.8565 30.5894C77.1433 31.7256 77.1212 33.9319 76.8124 35.1123C75.301 40.7605 69.1012 43.7391 63.8171 41.3452C61.2687 40.1979 59.3052 37.8592 58.566 35.1123C58.2572 33.9209 58.2351 31.7146 58.5329 30.5894C59.2941 27.6439 61.4232 25.1618 64.126 24.0586C65.891 23.3416 68.2408 23.1871 70.094 23.6836ZM69.7631 57.9478C73.0616 58.6208 75.8857 61.3786 76.8124 64.7874C77.1764 66.1443 77.1433 68.3065 76.7462 69.6192C75.301 74.407 70.7449 77.2642 65.9683 76.3596C62.4602 75.6977 59.7023 73.1604 58.6322 69.6192C58.3785 68.7699 58.3343 68.4499 58.3343 67.1592C58.3343 65.4052 58.555 64.4233 59.239 63.0224C61.1916 59.062 65.3615 57.0542 69.7631 57.9478Z" fill="#C22522" stroke="#C22522" stroke-width="0.6"/>
<path d="M34.1201 27.9529C33.4141 28.2177 32.6088 29.0782 32.3661 29.8283C32.1786 30.435 32.1675 30.4461 31.8145 30.3909C31.1636 30.2806 30.3031 29.7511 29.4868 28.9678C28.7918 28.2839 28.6595 28.2067 28.3837 28.2618C27.7328 28.4163 27.3798 29.3209 27.2915 31.0418C27.2033 32.7517 27.5784 33.8218 28.6594 34.958L29.2551 35.5758L28.9021 35.653C28.7036 35.6861 28.2072 35.7523 27.788 35.7964C26.9385 35.8737 26.7068 36.0612 26.7068 36.6679C26.7068 37.0871 26.9165 37.2857 27.7549 37.6608C28.836 38.1351 29.9391 38.3668 31.1085 38.3668C33.2266 38.3668 34.7379 37.749 36.1389 36.337C37.4848 34.9801 38.0804 33.7004 38.29 31.6706C38.3783 30.8984 38.4555 30.5674 38.6651 30.2586C39.0623 29.6739 39.4042 28.6921 39.3271 28.3721C39.2387 28.0522 38.8858 27.7764 38.5438 27.7764C38.4003 27.7764 38.0474 27.9088 37.7606 28.0743L37.2311 28.3721L36.6794 28.1074C35.9955 27.7654 34.8151 27.6992 34.1201 27.9529ZM36.172 29.7621C36.6684 30.1151 36.6905 30.2145 36.6464 31.3617C36.5471 33.8439 35.0026 35.8516 32.6749 36.5355C31.9358 36.7562 30.7223 36.7783 31.0533 36.5687C31.5498 36.2708 31.7814 35.9508 31.7814 35.5758C31.7814 35.1456 31.638 35.0021 30.8106 34.5609C29.6413 33.9321 29.0125 32.9393 28.9352 31.5934L28.8801 30.7219L29.2551 30.9977C29.8398 31.4389 30.5127 31.7478 31.4173 31.9795C33.2266 32.4317 33.8774 32.156 33.8774 30.9094C33.8774 29.6077 35.113 28.9899 36.172 29.7621Z" fill="#C22522"/>
<path d="M56.0172 41.5656C55.8186 41.7201 55.7193 41.9186 55.6972 42.1944C55.6641 42.5915 55.6421 42.6136 54.4396 43.2314C52.3105 44.3124 49.1113 45.4156 48.7583 45.195C48.6701 45.1399 47.6111 45.0958 46.3976 45.0958C43.9154 45.0958 43.6396 45.1619 43.1763 45.8569C42.9337 46.2209 42.9226 46.3092 42.9226 48.8906C42.9226 51.3507 42.9446 51.5713 43.1433 51.9133C43.4632 52.4318 43.9706 52.7076 44.6546 52.7076C44.9634 52.7076 45.2503 52.7406 45.2723 52.7847C45.3055 52.8399 45.3826 54.1085 45.4599 55.6309C45.5702 57.9476 45.6143 58.433 45.7798 58.6646C46.0556 59.0507 46.6844 59.0948 47.0153 58.7639C47.2801 58.4992 47.2801 58.5985 47.0374 54.0755L46.9712 52.7406L48.1185 52.6855C49.1003 52.6303 49.3871 52.6634 50.1483 52.884C51.2514 53.2039 51.428 53.215 51.7258 52.8951C52.0237 52.5751 52.0457 52.0346 51.77 51.7809C51.5714 51.6044 50.7219 51.2955 49.7953 51.0528L49.3209 50.9315V48.9127V46.9049L50.391 46.596C51.8361 46.1879 53.3695 45.6032 54.5279 45.0295C55.0574 44.7648 55.5428 44.5441 55.609 44.5441C55.6862 44.5441 55.7193 46.0334 55.7193 48.9457V53.3584L55.0133 53.0275C54.23 52.6634 53.8439 52.6744 53.5681 53.0716C53.1489 53.6673 53.4357 54.0865 54.7264 54.7594C55.6641 55.2558 55.7193 55.2999 55.7193 55.642C55.7193 56.3479 56.5026 56.701 57.0541 56.2487L57.3189 56.0391L57.3519 49.1553C57.363 45.3825 57.3519 42.1723 57.3189 42.0289C57.2306 41.6759 56.8666 41.345 56.5577 41.345C56.4143 41.345 56.1716 41.4442 56.0172 41.5656ZM47.6662 48.9016V51.0528H46.1218H44.5773V48.9016V46.7505H46.1218H47.6662V48.9016Z" fill="#C22522"/>
<path d="M68.396 26.4964C67.5355 26.7281 66.8074 27.3789 66.4103 28.2615C66.2227 28.7027 66.1565 29.0888 66.1124 30.2803L66.0572 31.7475H65.4064C64.8217 31.7475 64.7114 31.7805 64.4136 32.0784C64.1488 32.3542 64.0936 32.4755 64.1488 32.7182C64.2701 33.2257 64.6011 33.4022 65.3733 33.4022H66.0793L66.1124 36.0387C66.1455 38.4436 66.1675 38.6974 66.3551 38.907C66.6199 39.2048 67.3039 39.2269 67.5576 38.9401C67.712 38.7635 67.7451 38.3664 67.7672 36.0939L67.8002 33.4573L68.6497 33.4022C69.6205 33.336 69.8521 33.1926 69.8632 32.63C69.8742 32.3542 69.797 32.1887 69.5763 32.0012C69.3226 31.7916 69.1571 31.7475 68.4952 31.7475H67.7231L67.7672 30.3685C67.8002 29.2102 67.8443 28.9454 68.0319 28.6917C68.3849 28.2063 68.9144 27.9967 69.7639 27.9967C70.1831 27.9967 70.6133 27.9415 70.7346 27.8754C71.2642 27.5996 71.22 26.717 70.6575 26.4633C70.3045 26.3089 69.0468 26.3199 68.396 26.4964Z" fill="#C22522"/>
<path d="M63.1676 61.4665C62.7484 61.643 62.0423 62.4263 61.932 62.8234C61.8768 62.9999 61.8438 64.9635 61.8438 67.214V71.2957L62.1195 71.7921C62.4284 72.3327 62.9248 72.7187 63.5426 72.8953C64.0721 73.0387 71.3089 73.0387 71.8384 72.8953C72.4562 72.7187 72.9525 72.3327 73.2615 71.7921L73.5372 71.2957V67.1037C73.5372 62.5145 73.5483 62.6248 72.8533 61.9299C72.2576 61.3231 72.1914 61.312 67.6684 61.312C64.4803 61.3231 63.4213 61.3562 63.1676 61.4665ZM71.7722 63.2316C71.9266 63.4522 71.9377 63.9927 71.9156 67.2691C71.8825 70.8544 71.8715 71.0419 71.6729 71.1964C71.353 71.4281 64.028 71.4281 63.7081 71.1964C63.5095 71.0419 63.4985 70.8544 63.4654 67.2691C63.4433 63.9927 63.4543 63.4522 63.6088 63.2316L63.7743 62.9668H67.6905H71.6067L71.7722 63.2316Z" fill="#C22522"/>
<path d="M66.818 64.7873C65.4391 65.2727 64.8213 66.9384 65.5163 68.2733C66.432 70.0384 68.9472 70.0384 69.8627 68.2733C70.9218 66.2435 68.9802 64.0151 66.818 64.7873ZM68.2411 66.5524C69.0134 67.3135 67.9102 68.4277 67.1159 67.6886C66.9615 67.5452 66.8622 67.3246 66.8622 67.137C66.8622 66.7399 67.3034 66.2766 67.6896 66.2766C67.844 66.2766 68.0977 66.3979 68.2411 66.5524Z" fill="#C22522"/>
<path d="M30.9094 62.7905C30.3688 63.0883 30.3578 63.2208 30.3467 66.9715C30.3467 70.7002 30.3799 70.9649 30.8873 71.2407C31.4499 71.5386 31.7919 71.3952 34.8697 69.6301C36.6568 68.6042 37.9365 67.7989 38.0469 67.6334C38.2675 67.2803 38.2785 66.7178 38.0469 66.3758C37.7931 65.9897 31.9022 62.6361 31.494 62.6361C31.3176 62.6471 31.0528 62.7133 30.9094 62.7905ZM34.1747 65.9015C35.2007 66.4861 36.0391 66.9825 36.0612 66.9936C36.0721 67.0046 35.2779 67.479 34.2961 68.0416C33.3032 68.6152 32.3876 69.1447 32.2552 69.233L32.0015 69.3874V67.0487C32.0015 65.0299 32.0235 64.721 32.167 64.7762C32.2552 64.8093 33.1598 65.3168 34.1747 65.9015Z" fill="#C22522"/>
</svg>
