<svg width="101" height="100" viewBox="0 0 101 100" fill="none" xmlns="http://www.w3.org/2000/svg">
<path d="M25.7887 92.8013L1.07735 50L25.7887 7.19873H75.2113L99.9226 50L75.2113 92.8013H25.7887Z" fill="#F8FAFC" stroke="#E2E8F0"/>
<g clip-path="url(#clip0_2302_22382)">
<rect width="56" height="56" transform="translate(22.5 22)" fill="#F8FAFC"/>
<path d="M50.5009 22.7761C65.5369 22.7761 77.7247 34.964 77.7239 50C77.7247 65.0369 65.536 77.2256 50.5 77.2239C35.4631 77.2247 23.2761 65.0369 23.277 50.0009C23.2744 34.964 35.4631 22.7761 50.5009 22.7761Z" stroke="#C22522" stroke-width="2" stroke-miterlimit="10"/>
<path d="M50.5 22.875V77.125" stroke="#C22522" stroke-width="2" stroke-miterlimit="10"/>
<path d="M77.625 50H23.375" stroke="#C22522" stroke-width="2" stroke-miterlimit="10"/>
<path d="M48.75 22.875C48.75 22.875 36.5 32.5 36.5 50C36.5 67.5 48.75 77.125 48.75 77.125" stroke="#C22522" stroke-width="2" stroke-miterlimit="10"/>
<path d="M52.25 22.875C52.25 22.875 64.5 32.5 64.5 50C64.5 67.5 52.25 77.125 52.25 77.125" stroke="#C22522" stroke-width="2" stroke-miterlimit="10"/>
<path d="M29.5 32.5C29.5 32.5 33.875 41.25 50.5 41.25C67.125 41.25 71.5 32.5 71.5 32.5" stroke="#C22522" stroke-width="2" stroke-miterlimit="10"/>
<path d="M29.5 67.5C29.5 67.5 33.875 58.75 50.5 58.75C67.125 58.75 71.5 67.5 71.5 67.5" stroke="#C22522" stroke-width="2" stroke-miterlimit="10"/>
</g>
<defs>
<clipPath id="clip0_2302_22382">
<rect width="56" height="56" fill="white" transform="translate(22.5 22)"/>
</clipPath>
</defs>
</svg>
