<svg width="101" height="100" viewBox="0 0 101 100" fill="none" xmlns="http://www.w3.org/2000/svg">
<path d="M25.7887 92.8013L1.07735 50L25.7887 7.19873H75.2113L99.9226 50L75.2113 92.8013H25.7887Z" fill="#F8FAFC" stroke="#E2E8F0"/>
<g clip-path="url(#clip0_2302_22414)">
<rect width="56" height="56" transform="translate(22.5 22)" fill="#F8FAFC"/>
<path fill-rule="evenodd" clip-rule="evenodd" d="M50.5 31.3333C40.1907 31.3333 31.8333 39.6906 31.8333 50C31.8333 60.3093 40.1907 68.6666 50.5 68.6666C51.7887 68.6666 52.8333 69.7113 52.8333 71C52.8333 72.2887 51.7887 73.3333 50.5 73.3333C37.6133 73.3333 27.1667 62.8865 27.1667 50C27.1667 37.1133 37.6133 26.6666 50.5 26.6666C63.3865 26.6666 73.8333 37.1133 73.8333 50C73.8333 51.2887 72.7887 52.3333 71.5 52.3333C70.2113 52.3333 69.1667 51.2887 69.1667 50C69.1667 39.6906 60.8094 31.3333 50.5 31.3333ZM77.5991 57.4914C78.6164 58.2826 78.7996 59.7486 78.0086 60.7657L67.1196 74.7657C66.7132 75.2884 66.1042 75.6137 65.4438 75.6608C64.7837 75.7079 64.1346 75.4723 63.6581 75.0128L58.2138 69.7628C57.286 68.8685 57.2592 67.3912 58.1538 66.4637C59.0482 65.536 60.5254 65.5092 61.4529 66.4038L65.0292 69.8522L74.3247 57.9009C75.116 56.8835 76.582 56.7004 77.5991 57.4914ZM52.8333 36C52.8333 34.7113 51.7887 33.6666 50.5 33.6666C49.2113 33.6666 48.1667 34.7113 48.1667 36V50C48.1667 50.6188 48.4126 51.2124 48.8501 51.6499L55.8501 58.6499C56.7613 59.561 58.2387 59.561 59.1499 58.6499C60.0611 57.7387 60.0611 56.2612 59.1499 55.3501L52.8333 49.0335V36Z" fill="#C22522"/>
</g>
<defs>
<clipPath id="clip0_2302_22414">
<rect width="56" height="56" fill="white" transform="translate(22.5 22)"/>
</clipPath>
</defs>
</svg>
