<svg width="101" height="100" viewBox="0 0 101 100" fill="none" xmlns="http://www.w3.org/2000/svg">
<path d="M25.7887 92.8013L1.07735 50L25.7887 7.19873H75.2113L99.9226 50L75.2113 92.8013H25.7887Z" fill="#FDF6F6" stroke="#C22522"/>
<path d="M74.5663 21.2579C73.7344 21.5206 73.3878 21.8176 70.5571 24.6161L67.7958 27.3574L66.6289 26.7635C65.3233 26.101 63.6943 25.5413 62.1923 25.2443C60.621 24.9359 57.5131 24.9702 55.9417 25.3128C54.5668 25.6098 53.0187 26.1238 52.1752 26.5693L51.5975 26.8663L37.5598 26.9234C24.354 26.9805 23.4991 26.9919 23.1062 27.1861C22.5632 27.4602 22.0086 27.9971 21.6967 28.5682L21.4425 29.0365V47.9977V66.9588L21.6967 67.4157C21.9855 67.9526 22.5517 68.5008 23.1178 68.7978C23.4991 69.0034 23.9959 69.0148 32.326 69.0491L41.1415 69.0719L40.1594 71.0137L39.1774 72.9556H37.1902C34.9025 72.9556 34.5443 73.0583 33.7703 73.9265C33.2619 74.4976 33.0539 75.0687 33.0539 75.8911C33.0539 77.0219 34.0129 78.2555 35.1336 78.5525C35.434 78.6325 39.5702 78.6553 47.808 78.6439L60.0318 78.6097L60.5055 78.3583C61.06 78.0614 61.6724 77.4102 61.9035 76.862C62.1345 76.3023 62.1114 75.2401 61.8457 74.6461C61.5799 74.0292 60.9907 73.4467 60.3783 73.1726C59.9855 72.9898 59.6042 72.9556 57.929 72.9556H55.9302L54.9481 71.0137L53.9661 69.0719H62.6545H71.3543L71.932 68.7978C72.6137 68.4894 73.1452 67.9982 73.4456 67.3929C73.6536 66.9817 73.6651 66.5019 73.7229 57.878L73.7806 48.7972L74.081 48.2261C74.5316 47.3809 75.0747 45.8046 75.3635 44.4796C75.6985 42.9261 75.7216 39.8307 75.4212 38.3115C75.1208 36.838 74.6009 35.3645 73.9077 33.9938L73.2954 32.7716L76.1145 29.996C79.4651 26.6721 79.5574 26.5464 79.5574 24.8674C79.5574 23.9193 79.5228 23.7137 79.2455 23.2111C78.8526 22.4801 78.2056 21.8404 77.4778 21.4635C76.773 21.1094 75.3404 21.0066 74.5663 21.2579ZM76.6228 23.4167C77.4663 23.9764 77.8013 25.073 77.3738 25.8725C77.2814 26.0439 76.0567 27.3117 74.6703 28.6825L72.1284 31.1839L71.7472 30.7385C71.2504 30.1673 70.4416 29.3678 69.8639 28.8766L69.4133 28.4997L71.8858 26.0439C73.2492 24.696 74.5201 23.4853 74.7049 23.371C75.2017 23.0626 76.1145 23.074 76.6228 23.4167ZM61.5568 27.0947C63.5787 27.4145 65.5659 28.2027 67.3914 29.402C68.4775 30.0988 70.5109 32.1092 71.2157 33.1714C73.746 36.9522 74.4045 41.4641 73.0296 45.6903C71.6548 49.9395 68.1078 53.4804 63.8098 54.9082C60.2166 56.0961 56.1035 55.7991 52.6952 54.1086C48.5589 52.0411 45.7629 48.3404 44.8964 43.76C44.6423 42.4692 44.6423 40.1162 44.8964 38.7455C45.8785 33.3313 49.8876 28.968 55.2948 27.4374C55.8724 27.2775 56.6465 27.1061 57.0278 27.049C58.1485 26.8891 60.4131 26.912 61.5568 27.0947ZM47.3574 29.996C45.6013 31.8007 44.3419 33.834 43.5793 36.1184C43.0363 37.7404 42.863 38.7341 42.7937 40.6074C42.7243 42.5492 42.8515 43.8285 43.2789 45.4162L43.5446 46.3985L43.2789 46.6841C42.759 47.2438 42.759 47.2438 42.759 52.4981V57.5353H41.7769H40.7949V48.763V39.9906L40.5407 39.488C40.0555 38.5513 39.189 38.2544 37.3288 38.38C36.289 38.4486 35.6997 38.6884 35.33 39.191L35.0758 39.5451L35.0412 48.5345L35.0181 57.5353H34.036H33.0539V45.0507C33.0539 36.3468 33.0193 32.4404 32.9268 32.1206C32.7651 31.5494 32.1874 30.9783 31.6098 30.8184C31.3555 30.7499 30.6854 30.6928 30.1077 30.6928C29.5416 30.6928 28.86 30.7499 28.6058 30.8184C28.0281 30.9783 27.4504 31.5494 27.2887 32.1206C27.1962 32.4404 27.1616 36.3468 27.1616 45.0507V57.5353H26.6417C26.0524 57.5353 25.4978 57.7638 25.3823 58.0494C25.2321 58.4492 25.313 58.9174 25.6018 59.1916L25.8791 59.4772H37.8949H49.8992L50.2112 59.1116C50.4538 58.8261 50.5 58.6776 50.4538 58.4035C50.3382 57.8323 50.0263 57.6153 49.2291 57.5582L48.5358 57.5125V55.6393C48.5358 54.6112 48.5589 53.766 48.582 53.766C48.6168 53.766 48.9864 54.0286 49.4024 54.3371C51.5744 55.959 54.2087 57.0214 57.074 57.4326C58.5529 57.6382 61.3489 57.5011 62.8971 57.147C64.4568 56.7814 66.1552 56.119 67.5301 55.3194C68.801 54.5769 69.656 53.9259 70.8691 52.7494L71.7587 51.8813V56.6558V61.419H51.2625H30.7779L30.4659 61.6588C30.1656 61.8987 30.0615 62.4013 30.2349 62.8468C30.4428 63.3836 29.5879 63.3608 51.3665 63.3608H71.7587V64.9599C71.7587 66.5133 71.7472 66.5819 71.4699 66.8446L71.1926 67.1302H47.5769H23.9728L23.6608 66.8103C23.3489 66.4905 23.3489 66.4676 23.3489 64.9371V63.3722L25.4863 63.3379C27.4389 63.3036 27.6353 63.2808 27.8548 63.0752C27.9819 62.9495 28.109 62.6868 28.1552 62.4812C28.213 62.1729 28.1667 62.0586 27.8779 61.7616L27.5313 61.419H25.4401H23.3489V45.4276V29.4249L23.6377 29.1507L23.915 28.8652H36.185H48.4434L47.3574 29.996ZM31.0898 45.0849V57.5353H30.1077H29.1257V45.0849V32.6345H30.1077H31.0898V45.0849ZM38.8308 48.9115V57.5353H37.8487H36.8667V48.9115V40.2875H37.8487H38.8308V48.9115ZM45.2546 49.9052C45.5434 50.3621 45.9709 50.9561 46.1789 51.2416L46.5717 51.7442V54.634V57.5353H45.5897H44.6076V53.3091C44.6076 50.9789 44.6307 49.0828 44.6654 49.0828C44.6885 49.0828 44.9542 49.4483 45.2546 49.9052ZM52.7876 70.9566C53.3075 71.9961 53.735 72.8642 53.735 72.8985C53.735 72.9327 50.9505 72.9556 47.5538 72.9556H41.3725L42.3546 71.0137L43.3367 69.0719H47.5884H51.8287L52.7876 70.9566ZM59.5696 74.9545C59.9509 75.103 60.205 75.4799 60.205 75.8683C60.205 75.9482 60.0664 76.1766 59.9047 76.3708L59.6042 76.7249H47.6116C35.6651 76.7249 35.6304 76.7249 35.3184 76.4851C35.0181 76.2452 34.9141 75.7426 35.0874 75.2971C35.2838 74.7945 35.2491 74.7945 47.5307 74.7831C57.4553 74.7831 59.2346 74.8059 59.5696 74.9545Z" fill="#C22522"/>
<path d="M56.8087 29.0478C52.8343 29.8246 49.3566 32.5431 47.716 36.1411C44.5734 43.0517 48.363 51.1273 55.7342 53.2405C61.4649 54.8853 67.5883 52.281 70.3496 47.0495C71.4587 44.9364 71.8285 43.2459 71.7245 40.7101C71.5974 37.3405 70.4536 34.839 67.958 32.406C66.121 30.6127 64.2261 29.5961 61.7768 29.0936C60.5175 28.8308 58.0334 28.7966 56.8087 29.0478ZM61.8693 31.0811C64.8732 31.8464 67.3688 33.8681 68.7552 36.678C69.5293 38.2429 69.8297 39.5107 69.8297 41.2584C69.8297 43.3944 69.2867 45.2448 68.1544 46.981C67.6345 47.7806 66.2712 49.3112 66.0863 49.3112C66.0285 49.3112 65.9708 46.6954 65.9592 43.5086L65.9246 37.6946L65.5895 37.272C65.0927 36.6323 64.723 36.5181 63.0015 36.5181C61.3609 36.5181 61.0489 36.6209 60.5059 37.3519C60.2633 37.6718 60.2633 37.7974 60.2055 44.7194L60.1477 51.767L59.2003 51.8012L58.2413 51.8355V47.3465C58.2413 42.3206 58.2182 42.2179 57.421 41.6467C57.0629 41.3955 56.9012 41.3726 55.4107 41.3383C53.8741 41.304 53.7701 41.3155 53.3888 41.5668C53.1693 41.7152 52.8689 42.0123 52.7303 42.2179C52.4646 42.5948 52.4646 42.6633 52.4646 45.953C52.4646 47.8148 52.4183 49.3112 52.3605 49.3112C52.2103 49.3112 50.8239 47.8262 50.3849 47.198C49.8419 46.4213 49.1486 44.8907 48.8598 43.8627C48.5016 42.5491 48.5016 40.0362 48.8598 38.6883C49.5992 35.9812 51.3438 33.6625 53.7239 32.2462C54.7984 31.6064 56.5661 30.9782 57.7215 30.8183C58.8768 30.6584 60.6214 30.7726 61.8693 31.0811ZM63.9951 44.5366L63.9604 50.739L63.325 50.9788C62.9784 51.1159 62.574 51.2644 62.4353 51.3101L62.1696 51.3786V44.8678V38.3456H63.0939H64.0182L63.9951 44.5366ZM56.2773 47.2551C56.2773 50.0993 56.2426 51.3672 56.1502 51.3672C56.0809 51.3672 55.6418 51.2072 55.1681 51.0131L54.3131 50.659V46.981C54.3131 44.9478 54.3478 43.2573 54.394 43.223C54.4286 43.1774 54.8793 43.1431 55.376 43.1431H56.2773V47.2551Z" fill="#C22522"/>
</svg>
