<svg width="100" height="100" viewBox="0 0 100 100" fill="none" xmlns="http://www.w3.org/2000/svg">
<path d="M25.2887 92.8013L0.57735 50L25.2887 7.19873H74.7113L99.4226 50L74.7113 92.8013H25.2887Z" fill="#F8FAFC" stroke="#E2E8F0"/>
<rect width="56" height="56" transform="translate(22 22)" fill="#F8FAFC"/>
<path d="M68.6489 48.7485C68.6441 48.6864 68.6425 48.6243 68.6362 48.5638C68.5836 46.2066 68.1727 44.3018 66.3188 43.5166C64.3598 42.6868 62.6333 42.6756 61.3672 43.1678C61.2843 43.2012 61.0677 43.4863 60.9849 43.5389C60.9005 43.5914 60.4561 43.4433 60.2889 43.4831C57.5097 43.8797 56.5923 46.4981 56.7946 48.5399C57.4587 49.6994 57.6689 51.1615 57.7311 52.6729C58.7663 54.479 60.5437 55.8663 62.6652 55.8663C65.4986 55.8663 67.7427 53.474 68.4419 50.87C68.7094 50.8397 68.9308 50.6375 68.9515 50.3603L69.0391 49.3315C69.0614 49.0623 68.8926 48.8314 68.6489 48.7485ZM62.6604 55.0699C59.7362 55.0699 57.5495 51.9721 57.5495 49.1993C57.5495 49.0687 57.5606 48.9413 57.5702 48.8138C58.7886 48.3679 61.1298 47.4362 61.3863 46.9456C62.4502 48.051 66.2089 48.6721 67.8605 48.8807C67.8685 48.9859 67.8781 49.0926 67.8781 49.1993C67.8749 51.9148 65.5973 55.0699 62.6604 55.0699Z" fill="#C22522"/>
<path d="M30.9915 49.3076L31.0791 50.3365C31.1045 50.6263 31.3434 50.835 31.6269 50.8509C32.3102 53.4613 34.5161 55.8647 37.3112 55.8647C39.5044 55.8647 41.3328 54.4281 42.3776 52.5758C42.3553 51.2809 42.6961 49.951 43.4351 48.8505C43.3889 48.817 43.3555 48.7677 43.2997 48.7485C43.295 48.6864 43.2934 48.6243 43.287 48.5638C43.2344 46.2066 42.8235 44.3018 40.9696 43.5166C39.0106 42.6868 37.2842 42.6756 36.018 43.1678C35.9352 43.2012 35.7201 43.4863 35.6357 43.5389C35.5513 43.5914 35.107 43.4433 34.9397 43.4831C32.1605 43.8797 31.2431 46.4997 31.4454 48.5415C31.439 48.5988 31.4358 48.6562 31.431 48.7135C31.1587 48.7788 30.966 49.0257 30.9915 49.3076ZM32.2178 48.8154C33.4362 48.3695 35.7775 47.4378 36.0323 46.9472C37.0962 48.0525 40.8566 48.6737 42.5082 48.8823C42.5161 48.9875 42.5257 49.0942 42.5257 49.2009C42.5257 51.9148 40.2482 55.0715 37.3128 55.0715C34.3871 55.0715 32.2019 51.9737 32.2019 49.2009C32.1987 49.0687 32.2083 48.9413 32.2178 48.8154Z" fill="#C22522"/>
<path d="M45.9308 30.7432C46.3465 32.3311 47.6876 33.7932 49.3886 33.7932C51.1135 33.7932 52.4752 32.3375 52.9036 30.7544C53.0677 30.7353 53.2015 30.6126 53.2142 30.4438L53.2668 29.8179C53.2827 29.6538 53.176 29.5137 53.031 29.4627C53.0279 29.4261 53.0279 29.3878 53.0247 29.3512C52.9912 27.9178 52.7412 26.7599 51.6136 26.2805C50.4206 25.7756 49.3711 25.7677 48.6002 26.0687C48.5492 26.0894 48.4186 26.263 48.3677 26.2948C48.3167 26.3267 48.0459 26.2375 47.944 26.2614C46.2542 26.5019 45.6967 28.0946 45.8194 29.3385C45.8146 29.3719 45.813 29.4085 45.8098 29.4436C45.6458 29.4834 45.5295 29.6331 45.5438 29.8051L45.598 30.431C45.6123 30.6078 45.7588 30.7353 45.9308 30.7432ZM46.2908 29.5041C47.0314 29.2333 48.4553 28.6664 48.6113 28.3669C49.258 29.039 51.5451 29.4181 52.5501 29.5439C52.5548 29.6092 52.5612 29.6729 52.5612 29.7382C52.5612 31.3883 51.174 33.3074 49.3886 33.3074C47.6079 33.3074 46.2796 31.4233 46.2796 29.7382C46.2796 29.6586 46.2844 29.5821 46.2908 29.5041Z" fill="#C22522"/>
<path d="M38.2031 30.6286C35.8555 30.963 35.0815 33.1753 35.2519 34.9018C35.2471 34.9495 35.2439 34.9989 35.2391 35.0467C35.0114 35.1024 34.8489 35.3095 34.8712 35.5484L34.9461 36.418C34.9668 36.6633 35.1691 36.8401 35.408 36.8512C35.9861 39.0555 37.848 41.0862 40.2099 41.0862C42.6037 41.0862 44.4974 39.065 45.0899 36.8671C45.3145 36.8416 45.5008 36.6696 45.5215 36.4355L45.5948 35.5675C45.6139 35.3397 45.4706 35.1454 45.2667 35.0738C45.2619 35.0228 45.2619 34.9702 45.2555 34.9177C45.211 32.9268 44.8637 31.3182 43.2981 30.6541C41.6433 29.9533 40.1844 29.9437 39.1157 30.3594C39.0457 30.3881 38.8641 30.6286 38.7924 30.6732C38.7208 30.7178 38.3465 30.5935 38.2031 30.6286ZM39.1285 33.5543C40.0268 34.4877 43.2026 35.0132 44.5978 35.1884C44.6041 35.2776 44.6121 35.3668 44.6121 35.4576C44.6121 37.7495 42.6881 40.414 40.2083 40.414C37.7365 40.414 35.8921 37.7973 35.8921 35.4576C35.8921 35.3477 35.9001 35.2394 35.9081 35.1327C36.9369 34.7568 38.9135 33.9668 39.1285 33.5543Z" fill="#C22522"/>
<path d="M53.8035 36.8512C54.3816 39.0555 56.2435 41.0861 58.6055 41.0861C61.0009 41.0861 62.893 39.065 63.4854 36.8671C63.6415 36.8496 63.753 36.7477 63.8295 36.6187L63.9473 36.6059C63.9744 36.6027 64.0222 36.5852 64.027 36.5374L64.1018 35.671C64.105 35.6121 64.0461 35.5898 64.0397 35.5882L63.9903 35.5707C64.0094 35.3429 63.8661 35.1486 63.6606 35.0769C63.6575 35.026 63.6575 34.9734 63.6511 34.9209C63.6065 32.93 63.2593 31.3214 61.6937 30.6572C60.0389 29.9565 58.58 29.9469 57.5113 30.3626C57.4412 30.3913 57.2596 30.6317 57.188 30.6763C57.1179 30.7193 56.7436 30.5967 56.6003 30.6302C54.2526 30.9646 53.4786 33.1769 53.649 34.9033C53.6442 34.9511 53.641 35.0005 53.6347 35.0483C53.4069 35.104 53.2461 35.3111 53.2684 35.55L53.3432 36.4196C53.3639 36.6617 53.5646 36.8416 53.8035 36.8512ZM54.302 35.1311C55.3309 34.7552 57.309 33.9668 57.5224 33.5527C58.4191 34.4861 61.5965 35.0116 62.9933 35.1868C62.9997 35.276 63.0076 35.3652 63.0076 35.456C63.0076 37.7479 61.0837 40.4124 58.6039 40.4124C56.1304 40.4124 54.2861 37.7957 54.2861 35.456C54.2909 35.3477 54.2956 35.2378 54.302 35.1311Z" fill="#C22522"/>
<path d="M45.4116 37.1856C45.1361 38.0791 44.6312 38.9551 43.9671 39.6893L49.3742 39.6925V39.6829L54.8961 39.6797C54.2479 38.9487 53.7541 38.0743 53.4834 37.184C53.1855 37.0629 52.9737 36.7874 52.945 36.4529L52.8702 35.5833C52.8415 35.2632 52.9912 34.9654 53.2461 34.7902C53.2174 34.4844 53.2301 34.169 53.2636 33.8537C52.9419 33.5224 52.566 33.2883 52.1121 33.223C52.0229 33.2086 51.9353 33.2294 51.8779 33.2532L50.4541 35.1788L49.3726 34.3172L49.3663 34.3219V34.3267L49.3647 34.3251L48.2864 35.1884L46.8626 33.2628C46.8052 33.2405 46.7176 33.2198 46.63 33.2341C46.2223 33.2915 45.8799 33.4906 45.5789 33.7677C45.6171 34.1228 45.6426 34.4812 45.6521 34.8364C45.8847 35.0148 46.0169 35.3014 45.9914 35.6025L45.9181 36.4689C45.8894 36.7906 45.6935 37.0566 45.4116 37.1856Z" fill="#C22522"/>
<path d="M68.3304 51.5724C67.9131 52.6379 67.2251 53.6333 66.3459 54.3691C67.2362 53.6238 67.9243 52.6236 68.3304 51.5724Z" fill="#C22522"/>
<path d="M35.3889 43.1215C35.4191 43.1263 35.4478 43.1327 35.4749 43.1375C35.486 43.1247 35.4972 43.112 35.5099 43.0976C35.6517 42.9416 35.744 42.8444 35.8699 42.795C36.5866 42.5163 37.3972 42.4096 38.2589 42.4574L36.7012 40.3503C36.6216 40.3184 36.5006 40.2913 36.3779 40.3104C34.9174 40.5159 33.9969 41.9318 33.4123 43.577C33.844 43.3509 34.3186 43.1677 34.8808 43.0865L35.0098 43.0753C35.1149 43.0785 35.2567 43.0992 35.3889 43.1215Z" fill="#C22522"/>
<path d="M42.2263 54.1494L42.3346 55.4156C42.3648 55.7739 42.6595 56.0335 43.0083 56.0495C43.8492 59.2603 46.5631 62.2211 50.0033 62.2211C53.4929 62.2211 56.2515 59.2747 57.1131 56.0718C57.4412 56.0351 57.7119 55.7851 57.7438 55.4426L57.8505 54.1781C57.8808 53.8484 57.6721 53.5633 57.3711 53.4613C57.3647 53.3865 57.3631 53.3084 57.3536 53.2336C57.2915 50.3333 56.7866 47.9889 54.5011 47.0221C52.0914 46.0012 49.9667 45.9869 48.4091 46.5921C48.3071 46.6319 48.0427 46.9839 47.9392 47.0492C47.8357 47.1129 47.2894 46.9329 47.0824 46.9823C43.6629 47.4697 42.5336 50.6933 42.7821 53.2065C42.7757 53.2766 42.7694 53.3467 42.7646 53.4183C42.4317 53.4996 42.1944 53.8006 42.2263 54.1494ZM43.7361 53.5426C45.2332 52.9947 48.116 51.848 48.4282 51.2443C49.739 52.6045 54.3657 53.369 56.3964 53.6238C56.4059 53.7544 56.4187 53.885 56.4187 54.0156C56.4187 57.3571 53.6156 61.2384 50.0033 61.2384C46.4023 61.2384 43.7138 57.4255 43.7138 54.0156C43.7122 53.8563 43.725 53.7002 43.7361 53.5426Z" fill="#C22522"/>
<path d="M41.6911 43.0133L40.1908 41.8171L40.1813 41.8251V41.8331L40.1797 41.8315L39.2177 42.5976C39.842 42.7138 40.4775 42.8779 41.1225 43.1518C43.2631 44.0581 43.6231 46.334 43.6788 48.4634C44.4369 47.5174 45.5231 46.8023 47.0234 46.5872L47.1684 46.5745C47.2942 46.5745 47.463 46.6016 47.6207 46.6302C47.6494 46.635 47.6748 46.6398 47.7019 46.6446C47.3117 44.1202 46.3497 40.6306 43.9894 40.2977C43.8651 40.2786 43.7441 40.3057 43.6645 40.3391L41.6911 43.0133Z" fill="#C22522"/>
<path d="M62.3881 40.2977C62.2638 40.2786 62.1444 40.3057 62.0648 40.3391L60.0882 43.0148L58.5879 41.8187L58.5784 41.8267V41.8347L58.5768 41.8331L57.0765 43.0292L55.0983 40.3535C55.0203 40.3216 54.8993 40.2945 54.7766 40.3136C52.6727 40.6099 51.6773 43.4178 51.2106 45.8132C52.3111 45.8801 53.4802 46.1588 54.6604 46.6573C55.3978 46.9695 55.9536 47.4123 56.3852 47.9442C56.3709 45.81 57.5065 43.4815 60.2348 43.0913L60.3638 43.0801C60.4673 43.0801 60.6106 43.1024 60.7444 43.1263C60.7747 43.1311 60.8034 43.1375 60.8304 43.1423C60.8416 43.1295 60.8543 43.1168 60.8655 43.1024C61.0056 42.9464 61.098 42.8492 61.2254 42.7998C62.3132 42.3762 63.6192 42.338 64.9905 42.6676C64.4028 41.4285 63.573 40.465 62.3881 40.2977Z" fill="#C22522"/>
<path d="M49.9731 74.1391L61.305 74.1296C61.305 74.1296 60.9594 61.8356 55.5156 61.0696C55.3357 61.0393 55.1573 61.0823 55.0442 61.1285L52.163 65.0242L49.9763 63.2818L49.9635 63.2914V63.3041L49.9603 63.3009L47.7736 65.0449L44.8924 61.146C44.7777 61.0998 44.601 61.06 44.421 61.0871C38.9772 61.8516 38.6316 74.1487 38.6316 74.1487L49.9715 74.1551L49.9731 74.1391Z" fill="#C22522"/>
<path d="M62.6365 65.553L71.8454 65.5466C71.8454 65.5466 71.5651 55.5557 67.1406 54.9297C66.9941 54.9074 66.8508 54.9393 66.7584 54.9775L64.4156 58.1454L62.6397 56.7263L62.6286 56.7358V56.747L62.627 56.7438L60.8511 58.1613L58.5099 54.995C58.4302 54.9616 58.306 54.9488 58.1834 54.9552L58.1388 55.4776C58.1053 55.9045 57.8282 56.2549 57.4364 56.4014C56.8758 58.2776 55.6319 60.1251 53.9373 61.3164C53.8783 61.6079 53.829 61.8914 53.7812 62.1685L54.7925 60.802L54.8945 60.7606C55.0091 60.7144 55.2831 60.63 55.5777 60.6761C57.8457 60.9963 59.268 63.1082 60.1695 65.5657L62.6381 65.5689L62.6365 65.553Z" fill="#C22522"/>
<path d="M28.0705 65.5626L37.2857 65.5658V65.5498H39.7815C40.6845 63.1051 42.1052 61.0091 44.3652 60.6937C44.6328 60.6539 44.9259 60.7288 45.0389 60.775L45.1441 60.8164L46.1347 62.1558C46.0822 61.8357 46.0232 61.5092 45.9531 61.1731C44.378 59.9786 43.2185 58.2028 42.6881 56.3919C42.274 56.2581 41.9746 55.895 41.9364 55.449L41.895 54.9585C41.8584 54.9521 41.8281 54.9346 41.7899 54.9282C41.6433 54.9043 41.5 54.9378 41.406 54.9744L39.0648 58.1423L37.2889 56.7248L37.2778 56.7343V56.7439L37.2762 56.7407L35.5003 58.1582L33.1591 54.9903C33.0651 54.9553 32.9218 54.9218 32.7753 54.9441C28.3508 55.5685 28.0705 65.5626 28.0705 65.5626Z" fill="#C22522"/>
</svg>
