<svg width="100" height="100" viewBox="0 0 100 100" fill="none" xmlns="http://www.w3.org/2000/svg">
<path d="M25.2887 92.8013L0.57735 50L25.2887 7.19873H74.7113L99.4226 50L74.7113 92.8013H25.2887Z" fill="#F8FAFC" stroke="#E2E8F0"/>
<path d="M54.9875 22.1313C54.5938 22.1313 54.2 22.2188 53.85 22.35C54.5938 22.8313 54.9875 23.4875 55.2063 24.2313C55.2063 24.3188 55.25 24.4063 55.25 24.4938C55.25 24.5813 55.2938 24.6688 55.2938 24.7563C55.3375 26.025 54.9438 26.2 54.6813 26.9438C54.2438 27.9063 54.375 28.9563 54.9 29.7875C54.9438 29.875 54.9875 30.0063 55.075 30.0938C54.5063 26.4188 57.5688 25.8938 58.1375 24.7563C58.1813 23.75 57.35 23.0938 56.6938 22.6125C56.0375 22.2188 55.5125 22.1313 54.9875 22.1313ZM59.5813 22.9188C59.5375 23.2688 59.5813 23.1813 59.5375 23.3563C59.5375 23.4875 59.5375 23.6188 59.4938 23.75C59.45 23.8813 59.45 23.9688 59.4063 24.1C59.3625 24.2313 59.3188 24.3188 59.275 24.45C59.2313 24.5375 59.1875 24.625 59.1438 24.7563C59.1 24.8 59.0563 24.8875 59.0125 24.9313C58.9688 24.975 58.9688 25.0188 58.925 25.0625C58.8375 25.15 58.7938 25.2813 58.7063 25.3688L58.4438 25.6313C58.3563 25.7188 58.2688 25.8063 58.1813 25.85C57.875 26.0688 57.525 26.2438 57.2188 26.4625C57.1313 26.55 57 26.5938 56.9125 26.6813C56.825 26.7688 56.7375 26.8125 56.65 26.9L56.3875 27.1625C56.3 27.25 56.2125 27.3375 56.1688 27.4688C56.0813 27.5563 56.0375 27.6875 55.95 27.775C55.9063 27.9063 55.8625 27.9938 55.775 28.125C55.7313 28.2563 55.6875 28.3438 55.6438 28.475C55.6 28.6063 55.5563 28.7375 55.5563 28.825C55.5563 28.8688 55.5563 28.9563 55.5125 29C55.5125 29.0438 55.5125 29.1313 55.4688 29.175V29.7875C55.4688 29.9188 55.4688 30.0063 55.5125 30.1375C55.5125 30.2688 55.5563 30.3563 55.6 30.4875C55.6438 30.6188 55.6875 30.7063 55.7313 30.8375C55.775 30.925 55.8188 30.9688 55.8188 31.0563L52.4938 29.7875C51.925 29.6125 51.4 29.4813 50.8313 29.35C50.525 29.2625 50.2188 29.2188 49.9125 29.1313C49.0375 28.9563 48.1625 28.825 47.2875 28.7375H47.2C46.325 28.65 45.4938 28.6063 44.6188 28.6063C43.9625 28.6063 43.35 28.65 42.7375 28.6938C41.8625 28.7375 40.9875 28.8688 40.1125 29L39.4563 29.1313C39.0188 29.2188 38.5813 29.3063 38.1438 29.4375C37.925 29.4813 37.7063 29.5688 37.4875 29.6125C37.2688 29.7 37.05 29.7875 36.875 29.875C36.7 29.9625 36.5688 30.0063 36.3938 30.0938C36.35 30.0938 36.35 30.0938 36.3063 30.1375C36.175 30.225 36.0438 30.2688 35.9125 30.3563C35.8688 30.3563 35.825 30.4 35.825 30.4C35.65 30.4875 35.5188 30.575 35.3875 30.6188C35.3 30.6625 35.1688 30.7063 35.0813 30.75C35.0375 30.7938 34.9938 30.7938 34.95 30.8375C34.8188 30.925 34.6875 30.9688 34.5563 31.0563C34.425 31.1438 34.2938 31.1875 34.2063 31.275C34.1188 31.3625 33.9875 31.4063 33.9 31.4938C33.9 31.4938 33.8563 31.4938 33.8563 31.5375C33.7688 31.5813 33.6813 31.6688 33.5938 31.7563L33.55 31.8C33.4625 31.8438 33.4188 31.9313 33.3313 31.975C33.2875 31.975 33.2875 32.0188 33.2438 32.0188C33.1563 32.0625 33.1125 32.15 33.025 32.1938C33.025 32.2375 32.9813 32.2375 32.9813 32.2375L32.7188 32.5L32.675 32.5438L32.4125 32.8063C32.4125 32.8063 32.4125 32.85 32.3688 32.85L32.15 33.0688C32.1063 33.1125 32.0625 33.1125 32.0625 33.1563L31.8 33.4188C31.8 33.4625 31.7563 33.4625 31.7563 33.5063L31.4063 33.8563L31.3625 33.9C31.1438 34.1625 30.8813 34.3813 30.6188 34.6C30.3563 34.8188 30.0938 35.0375 29.7875 35.2563C29.4813 35.475 29.2188 35.65 28.9125 35.825C28.6063 36 28.3 36.1313 27.9938 36.2625C27.6875 36.3938 27.3813 36.525 27.075 36.6125C26.4625 36.7438 25.85 37.0063 25.325 37.05C25.325 36.8313 25.1938 36.875 25.0625 36.875C24.9313 36.9188 24.8 36.9188 24.7125 36.9625C24.5813 37.0063 24.4938 37.05 24.3625 37.0938C24.2313 37.1375 24.1438 37.1813 24.0125 37.2688C23.925 37.3563 23.7938 37.4 23.7063 37.4875C23.6188 37.575 23.4875 37.6625 23.4 37.75C23.3125 37.8375 23.1813 37.925 23.0938 38.0125C23.0063 38.1 22.9188 38.1875 22.8313 38.3188C22.7438 38.45 22.6563 38.5375 22.6125 38.6688C22.525 38.7563 22.4813 38.8875 22.3938 39.0188C22.35 39.15 22.2625 39.2813 22.2188 39.4125L22.0875 39.8063C22.0438 39.9375 22.0438 40.025 22 40.1563V40.2C21.9563 40.3313 21.9563 40.5063 21.9563 40.5938C22 40.55 22 40.6375 22 40.725V40.9C22 40.9875 22.0438 41.075 22.0438 41.1625C22.0875 41.25 22.0875 41.3375 22.1313 41.425C22.175 41.5125 22.2188 41.6 22.3063 41.6875C22.35 41.775 22.4375 41.8625 22.4813 41.95C22.5688 42.0375 22.6563 42.125 22.7438 42.1688C22.8313 42.2563 22.9188 42.3438 23.0063 42.3875C23.3563 42.6938 23.4438 42.7813 23.8813 43.0438C23.9688 43.0875 24.0125 43.1313 24.1 43.175H24.1438V43.2625C24.1438 43.3938 24.1875 43.4813 24.2313 43.6125C24.275 43.7438 24.3188 43.875 24.3625 43.9625L24.4938 44.225C24.4938 44.2688 24.5375 44.2688 24.5375 44.3125C24.5813 44.4438 24.6688 44.5313 24.7125 44.6188C24.8 44.7063 24.8438 44.8375 24.9313 44.925L25.1938 45.1875L25.4563 45.45H25.5C25.5875 45.5375 25.675 45.5813 25.7625 45.6688C25.85 45.7563 25.9813 45.8 26.0688 45.8438C26.1563 45.8875 26.2875 45.975 26.4188 46.0188C26.5063 46.0625 26.5938 46.1063 26.725 46.1063C26.725 46.1063 26.7688 46.1063 26.7688 46.15C26.8125 46.15 26.9 46.1938 26.9438 46.1938C26.9 46.9813 26.9 47.725 26.9875 47.9875C27.1188 48.2938 27.775 47.375 28.3875 46.3688C28.3 47.375 28.2563 48.5563 28.3875 48.9063C28.5625 49.2563 29.3938 48.1188 30.1813 46.8938C40.4188 44.5313 49.7813 51.6188 50.7875 61.6375C50.6125 60.0625 48.6875 59.1875 47.7688 59.4063C47.3313 60.4563 46.5875 61.8563 45.4063 62.6875C45.4938 61.725 45.45 60.7625 45.275 59.8C44.9688 61.1125 44.3563 62.3813 43.4813 63.4313C42.125 63.5188 40.725 62.8625 40.025 61.8563C39.9813 61.8125 39.9375 61.725 39.8938 61.6813C39.85 61.5938 39.8063 61.4625 39.7625 61.375C39.7188 61.2875 39.675 61.1563 39.675 61.0688V60.7625V60.5438C39.675 60.4563 39.7188 60.325 39.7625 60.2375C39.8063 60.15 39.8063 60.0188 39.85 59.9313C39.8938 59.8438 39.9375 59.7125 40.025 59.625C40.2875 58.925 40.2875 58.3563 39.8063 58.05L39.5438 57.9188C39.5 57.9188 39.4125 57.875 39.3688 57.875C39.325 57.875 39.2813 57.8313 39.2375 57.8313C39.15 57.7875 39.0188 57.7875 38.9313 57.7438C38.8438 57.7 38.7125 57.7 38.625 57.7C38.5375 57.7 38.4063 57.6563 38.3188 57.6563H38.1C37.9688 57.6563 37.8813 57.6563 37.7938 57.7C37.7063 57.7 37.575 57.7438 37.4875 57.7438C37.4 57.7875 37.2688 57.7875 37.1813 57.8313C37.0938 57.875 37.0063 57.9188 36.875 57.9625L36.6125 58.0938C33.2438 60.2813 35.2563 65.4438 37.5313 66.9313C36.6563 67.1063 35.7813 67.2813 35.5188 67.4563L35.475 67.5C36.0875 67.8938 36.7438 68.2 37.4438 68.4625C38.3625 68.7688 39.3688 69.0313 39.8063 69.1625C40.9875 69.425 42.2125 69.5125 43.4375 69.425C49.825 68.9875 55.075 64.0875 56.0375 57.7C56.0813 57.8313 56.0813 57.9625 56.125 58.0938C56.1688 58.3563 56.2125 58.6188 56.2563 58.925C56.3 59.0563 56.3 59.1875 56.3 59.3188V59.3625C56.3 59.4938 56.3438 59.625 56.3438 59.7563C56.3438 59.9313 56.3875 60.0625 56.3875 60.2375V62.075C56.3875 62.2063 56.3438 62.2938 56.3438 62.425V62.5563C56.3438 62.6875 56.3 62.8188 56.3 62.9938C56.2563 63.125 56.2563 63.2563 56.2125 63.3875V63.4313C56.1688 63.5625 56.1688 63.6938 56.125 63.825V63.8688C56.0813 64 56.0813 64.1313 56.0375 64.2625V64.3063L55.9063 64.7V64.7438C55.8625 64.875 55.8188 65.05 55.775 65.1813C55.7313 65.3125 55.6875 65.4438 55.6 65.6188C55.5563 65.75 55.5125 65.925 55.425 66.0563C55.3813 66.1875 55.2938 66.3188 55.25 66.4938C55.2063 66.625 55.1188 66.7563 55.075 66.8875C55.075 66.9313 55.0313 66.975 55.0313 66.975C55.0313 66.975 55.0313 67.0188 54.9875 67.0188C54.0688 68.9 52.6688 70.5625 50.9188 71.875C50.7875 71.9625 50.7 72.05 50.5688 72.1375C50.525 72.1813 50.4813 72.1813 50.4813 72.225C50.3938 72.3125 50.2625 72.3563 50.175 72.4438L50.2188 72.5313C50.4375 72.4875 50.6125 72.4875 50.8313 72.4438C51.225 72.4 51.575 72.3125 51.9688 72.225C52.0563 72.225 52.1875 72.1813 52.275 72.1375C52.3625 72.1375 52.4063 72.0938 52.4938 72.0938C52.5813 72.0938 52.7125 72.05 52.8 72.05C52.8875 72.0063 52.975 72.0063 53.0625 71.9625C54.5063 71.6125 55.9063 71.1313 57.2625 70.5625C54.9438 73.7125 51.8813 76.25 48.2938 77.9125C49.9563 77.7813 51.6188 77.5188 53.2375 77.0375C59.0563 75.3313 63.9563 71.3938 66.8875 66.1C66.275 69.425 64.9625 72.6188 62.9938 75.4188C64.3938 74.5 65.6625 73.4063 66.8438 72.225C70.0813 68.8563 72.225 64.525 72.925 59.9313C73.4063 62.2063 73.5813 64.5688 73.3625 66.8875C83.8188 52.3188 74.2375 37.225 70.2125 33.2438C70.2125 33.2 70.1688 33.2 70.1688 33.1563C70.1688 33.3313 70.1688 33.5063 70.125 33.6813C70.0813 34.0313 70.0375 34.3375 69.9938 34.6438C69.9063 34.95 69.8188 35.3 69.7313 35.6063C69.6438 35.9125 69.5125 36.2188 69.3813 36.525C69.25 36.8313 69.1188 37.1375 68.9438 37.4C68.7688 37.6625 68.5938 37.9688 68.4188 38.2313C68.2438 38.4938 68.025 38.7563 67.8063 39.0188C67.5875 39.2813 67.3688 39.5 67.1063 39.7625C66.975 39.8938 66.8438 40.025 66.6688 40.1125C66.5375 40.2 66.45 40.2875 66.3188 40.4188C66.0563 40.6375 65.7938 40.8125 65.4875 40.9875C65.225 41.1625 64.9188 41.3375 64.6125 41.4688L63.6938 41.8625C63.3875 41.9938 63.0813 42.0813 62.775 42.1688C62.4688 42.2563 62.1188 42.3438 61.8125 42.3875C61.4625 42.4313 61.1563 42.475 60.85 42.5188C60.6313 42.5188 60.3688 42.5625 60.15 42.5625C59.8 42.5625 59.4938 42.5188 59.1875 42.5188C58.8375 42.475 58.5313 42.4313 58.225 42.3875C57.875 42.3438 57.5688 42.2563 57.2625 42.125C57.5688 42.0813 57.9188 42.0813 58.225 41.9938C58.575 41.95 58.8813 41.8625 59.1875 41.775C59.4938 41.6875 59.8438 41.6 60.1063 41.4688L61.025 41.075C61.3313 40.9438 61.5938 40.7688 61.9 40.5938C62.1625 40.4188 62.4688 40.2 62.7313 40.025C62.9938 39.8063 63.2563 39.5875 63.475 39.3688C63.7375 39.15 63.9563 38.8875 64.175 38.6688C64.3938 38.4063 64.6125 38.1438 64.7875 37.8813C64.8313 37.8375 64.8313 37.7938 64.875 37.75C65.0063 37.5313 65.1813 37.2688 65.3125 37.05C65.4875 36.7438 65.6188 36.4813 65.75 36.175C65.8813 35.8688 66.0125 35.5625 66.1 35.2563L66.3625 34.3375C66.4063 33.9875 66.4938 33.6813 66.4938 33.375C66.5375 33.025 66.5375 32.7188 66.5375 32.4125C66.5375 32.1938 66.5375 31.9313 66.4938 31.7125C66.45 31.3625 66.4063 31.0563 66.3625 30.75C66.3188 30.4 66.2313 30.0938 66.1438 29.7875C66.0563 29.4813 65.925 29.175 65.8375 28.8688C65.7063 28.5625 65.575 28.2563 65.4438 27.9938C65.2688 27.6875 65.1375 27.425 64.9625 27.1188C64.7875 26.8563 64.5688 26.5938 64.3938 26.3313C64.175 26.0688 63.9563 25.85 63.7375 25.5875C63.6063 25.4563 63.475 25.325 63.3438 25.2375C62.6875 24.7125 62.0313 24.275 61.3313 23.8375C61.2438 23.7938 61.1563 23.75 61.025 23.7063C60.4563 23.225 60.0188 23.0938 59.5813 22.9188V22.9188Z" fill="#DF234F"/>
</svg>
