<svg width="101" height="100" viewBox="0 0 101 100" fill="none" xmlns="http://www.w3.org/2000/svg">
<path d="M25.7887 92.8013L1.07735 50L25.7887 7.19873H75.2113L99.9226 50L75.2113 92.8013H25.7887Z" fill="#F8FAFC" stroke="#E2E8F0"/>
<path d="M40.2319 56.0462V44.1987H40.875V46.0625C40.951 45.9799 41.0211 45.8922 41.085 45.8C41.3478 45.2545 41.7607 44.7952 42.2752 44.4759C42.7897 44.1567 43.3845 43.9907 43.99 43.9975C45.4556 43.9537 46.6456 44.4962 47.3456 45.8C47.791 46.6099 48.0361 47.5146 48.0605 48.4386C48.0849 49.3626 47.8877 50.279 47.4856 51.1112C46.8338 52.5725 45.2238 53.2987 43.5 53.0319C42.9636 52.9862 42.4472 52.8069 41.9978 52.5104C41.5485 52.2139 41.1805 51.8096 40.9275 51.3344V56.0462H40.2319ZM40.875 48.39C40.9319 48.9675 40.9538 49.3787 41.0194 49.7812C41.2731 51.365 42.2094 52.3056 43.6794 52.4762C44.3696 52.5897 45.0778 52.4603 45.6833 52.1101C46.2889 51.7598 46.7542 51.2105 47 50.5556C47.2825 49.882 47.4185 49.156 47.3988 48.4259C47.3792 47.6957 47.2045 46.9781 46.8863 46.3206C46.6239 45.7337 46.1776 45.248 45.6148 44.9371C45.0521 44.6261 44.4035 44.5067 43.7669 44.5969C43.1692 44.6402 42.5999 44.8686 42.138 45.2505C41.6762 45.6323 41.3448 46.1486 41.19 46.7275C41.053 47.2751 40.9478 47.8302 40.875 48.39V48.39ZM61.1794 50C61.0819 50.8341 60.6849 51.6045 60.062 52.1678C59.4391 52.7311 58.6329 53.0491 57.7931 53.0625C55.0981 53.1981 53.8338 51.4087 53.6325 49.3437C53.4928 48.2223 53.6749 47.0843 54.1575 46.0625C54.4936 45.3616 55.044 44.7858 55.7291 44.4185C56.4142 44.0512 57.1983 43.9114 57.9681 44.0194C58.7 44.0814 59.3938 44.3721 59.9512 44.8503C60.5087 45.3284 60.9017 45.9699 61.0744 46.6837C61.2113 47.3339 61.3121 47.9912 61.3763 48.6525H54.2931C54.1619 50.525 55.1681 52.03 56.5944 52.3931C58.3706 52.8306 59.8888 52.0606 60.44 50.3719C60.5625 49.9387 60.7856 49.8775 61.1794 50V50ZM54.2931 48.0531H60.6238C60.5844 46.0581 59.3419 44.6144 57.6575 44.5925C55.75 44.5619 54.3763 45.9531 54.2931 48.0531ZM62.4831 50.0437H63.1044C63.1273 50.5009 63.2759 50.9428 63.5337 51.321C63.7915 51.6992 64.1485 51.999 64.5656 52.1875C65.0894 52.4232 65.6596 52.5377 66.2338 52.5226C66.8079 52.5074 67.3713 52.363 67.8819 52.1C68.1602 51.9745 68.3932 51.7668 68.5497 51.5047C68.7062 51.2426 68.7785 50.9388 68.7569 50.6344C68.7729 50.3407 68.6927 50.0499 68.5285 49.8059C68.3643 49.5619 68.125 49.3782 67.8469 49.2825C67.1644 49.0287 66.4381 48.8887 65.7425 48.6656C65.0187 48.4595 64.311 48.2007 63.625 47.8912C62.505 47.3444 62.435 45.2137 63.7038 44.54C64.3534 44.1734 65.0845 43.9753 65.8304 43.9638C66.5763 43.9524 67.3132 44.1279 67.9738 44.4744C68.3739 44.6955 68.6972 45.0334 68.9004 45.443C69.1037 45.8526 69.1772 46.3144 69.1113 46.7669H68.5775C68.5775 46.7406 68.5294 46.7187 68.5294 46.6925C68.4638 44.9906 67.0375 44.4656 65.5063 44.6144C65.0492 44.6707 64.6052 44.8054 64.1938 45.0125C63.9466 45.1255 63.7406 45.3125 63.6043 45.5476C63.4679 45.7827 63.4079 46.0543 63.4325 46.325C63.4333 46.5958 63.5178 46.8597 63.6744 47.0806C63.8311 47.3015 64.0522 47.4685 64.3075 47.5587C64.9813 47.8037 65.6856 47.9612 66.3769 48.1537C66.9325 48.3069 67.51 48.4075 68.0481 48.5912C68.428 48.7157 68.761 48.9527 69.0032 49.2706C69.2454 49.5886 69.3853 49.9726 69.4044 50.3719C69.4693 50.8093 69.3948 51.2561 69.1914 51.6488C68.988 52.0414 68.666 52.36 68.2713 52.5594C66.81 53.3862 64.4038 53.1675 63.3319 52.1219C63.0602 51.8487 62.8454 51.5244 62.6997 51.1677C62.554 50.811 62.4804 50.429 62.4831 50.0437ZM77.2794 46.7669H76.6975C76.6975 46.6881 76.6669 46.6181 76.6581 46.5525C76.6487 46.1163 76.4897 45.6966 76.2078 45.3637C75.9258 45.0308 75.538 44.8049 75.1094 44.7237C74.3006 44.4917 73.4378 44.5332 72.655 44.8419C72.3456 44.9306 72.0732 45.117 71.8784 45.3732C71.6837 45.6295 71.577 45.9419 71.5744 46.2637C71.5635 46.5798 71.662 46.89 71.8533 47.1419C72.0446 47.3937 72.317 47.5719 72.6244 47.6462C73.4994 47.9175 74.3963 48.0837 75.2844 48.3287C75.5722 48.3978 75.8556 48.484 76.1331 48.5869C76.5476 48.7351 76.9076 49.005 77.1662 49.3611C77.4249 49.7173 77.5701 50.1431 77.5828 50.5831C77.5956 51.0231 77.4753 51.4566 77.2378 51.8272C77.0002 52.1977 76.6564 52.488 76.2513 52.66C75.6339 52.9403 74.9647 53.0887 74.2867 53.0954C73.6086 53.1022 72.9366 52.9673 72.3138 52.6994C71.8015 52.4784 71.3693 52.1059 71.0752 51.6319C70.7811 51.1579 70.6392 50.6052 70.6688 50.0481H71.2375C71.3427 50.5557 71.5701 51.0301 71.8999 51.43C72.2298 51.83 72.6521 52.1435 73.1304 52.3434C73.6087 52.5434 74.1286 52.6237 74.6449 52.5775C75.1613 52.5312 75.6586 52.3598 76.0938 52.0781C76.3589 51.9404 76.5789 51.7295 76.7278 51.4705C76.8767 51.2115 76.9482 50.9153 76.9338 50.6169C76.9469 50.323 76.8639 50.0329 76.6974 49.7906C76.5308 49.5482 76.2897 49.3667 76.0106 49.2737C75.3281 49.02 74.6019 48.8844 73.9063 48.6612C73.1783 48.4583 72.4662 48.2024 71.7756 47.8956C70.6819 47.3575 70.5944 45.2444 71.8413 44.5706C72.499 44.1886 73.2444 43.9835 74.0049 43.975C74.7655 43.9666 75.5152 44.1552 76.1813 44.5225C76.5622 44.7499 76.8688 45.0831 77.0637 45.4816C77.2587 45.88 77.3336 46.3266 77.2794 46.7669V46.7669ZM39.1688 52.8481C38.9397 52.9349 38.6868 52.9347 38.4579 52.8476C38.2289 52.7605 38.0398 52.5926 37.9263 52.3756C37.2131 51.3081 36.4256 50.2887 35.6688 49.2475L35.3406 48.81C34.4394 50.0175 33.5381 51.1769 32.7156 52.38C32.6085 52.5874 32.4296 52.7488 32.2123 52.8341C31.9949 52.9194 31.754 52.9228 31.5344 52.8437L34.9163 48.3069L31.7706 44.2075C31.9971 44.1257 32.2448 44.1246 32.4719 44.2043C32.6991 44.284 32.8918 44.4397 33.0175 44.645C33.7481 45.7125 34.5575 46.7319 35.3625 47.8125C36.1719 46.7406 36.9725 45.7169 37.7206 44.6581C37.8284 44.4541 38.0074 44.2968 38.2236 44.2161C38.4398 44.1354 38.6781 44.137 38.8931 44.2206L37.6725 45.8394C37.1256 46.5612 36.5875 47.2875 36.0188 47.9919C35.9729 48.0329 35.9363 48.0831 35.9112 48.1393C35.8861 48.1955 35.8731 48.2563 35.8731 48.3178C35.8731 48.3793 35.8861 48.4401 35.9112 48.4963C35.9363 48.5525 35.9729 48.6027 36.0188 48.6437C37.0644 50.0306 38.1013 51.4219 39.1688 52.8481V52.8481ZM53.5275 44.1637V44.7762C53.085 44.7472 52.6414 44.8113 52.2252 44.9644C51.809 45.1174 51.4295 45.356 51.1112 45.6648C50.793 45.9736 50.543 46.3457 50.3774 46.7571C50.2118 47.1684 50.1344 47.6099 50.15 48.0531V52.8656H49.5244V44.1987H50.1369V45.975C50.8938 44.68 52.0619 44.1987 53.5275 44.1637V44.1637ZM23.4319 48.25C23.5238 47.8125 23.5806 47.3356 23.7075 46.8894C24.4644 44.1987 27.5488 43.0787 29.6706 44.7456C30.9131 45.7212 31.2238 47.1037 31.1625 48.6612H24.1625C24.0488 51.4437 26.0569 53.1237 28.625 52.2662C29.0416 52.1172 29.4145 51.8668 29.7101 51.5376C30.0057 51.2084 30.2147 50.8108 30.3181 50.3806C30.4538 49.9431 30.6725 49.8687 31.0881 49.9956C31.0197 50.5282 30.8314 51.0384 30.5373 51.4878C30.2433 51.9371 29.8513 52.314 29.3906 52.59C28.6296 53.0062 27.7564 53.1711 26.8959 53.061C26.0355 52.951 25.2319 52.5718 24.6 51.9775C23.9749 51.2746 23.5969 50.3865 23.5238 49.4487C23.5238 49.3 23.4669 49.1512 23.4363 49.0112C23.4333 48.7517 23.4319 48.4979 23.4319 48.25V48.25ZM24.1713 48.0619H30.5019C30.4625 46.045 29.1894 44.6144 27.4919 44.6012C25.6019 44.575 24.25 45.975 24.1669 48.0531L24.1713 48.0619Z" fill="#1E293B"/>
</svg>
