<svg width="100" height="100" viewBox="0 0 100 100" fill="none" xmlns="http://www.w3.org/2000/svg">
<path d="M25.2887 92.8013L0.57735 50L25.2887 7.19873H74.7113L99.4226 50L74.7113 92.8013H25.2887Z" fill="#FDF6F6" stroke="#C22522"/>
<path d="M28.7879 19.3702C27.8498 19.7033 27.0402 20.408 26.6032 21.2921L26.2434 22.0224L26.2049 44.2014C26.1791 65.7526 26.1791 66.3933 26.4233 66.6879C26.7574 67.0979 27.5285 67.0979 27.8626 66.6879C28.094 66.4061 28.1068 65.7654 28.1068 47.379V28.3648H43.9779H59.849V30.8633C59.849 33.5155 59.9133 33.8743 60.4529 34.1178C60.8899 34.3228 61.057 34.2971 61.4425 33.9896L61.7766 33.7333V27.9932C61.7766 21.5484 61.7766 21.5355 60.8514 20.4849C60.5686 20.1646 60.0288 19.7417 59.669 19.5496L59.0137 19.2036L44.2349 19.178C30.2915 19.1524 29.4176 19.1524 28.7879 19.3702ZM58.8337 21.3177C59.7462 21.7918 59.849 22.1121 59.849 24.4184V26.4429H43.9779H28.1068V24.5081C28.1068 22.2403 28.261 21.779 29.1863 21.3177C29.7003 21.0615 29.9317 21.0615 44.0164 21.0615C58.1526 21.0615 58.3197 21.0615 58.8337 21.3177Z" fill="#C22522" stroke="#C22522" stroke-width="0.8"/>
<path d="M41.831 22.9187C41.3555 23.175 41.227 23.8028 41.574 24.2513L41.8182 24.5844L44.7226 24.6228C47.4983 24.6485 47.6525 24.6356 47.8968 24.3922C48.2822 24.0078 48.2437 23.3287 47.8196 22.9956C47.4983 22.7393 47.3184 22.7265 44.8254 22.7265C42.7692 22.7393 42.1009 22.7778 41.831 22.9187Z" fill="#C22522"/>
<path d="M45.8026 30.9009C45.5584 31.1699 39.8012 45.5459 39.8012 45.8919C39.8012 46.5454 40.7007 47.0066 41.2661 46.635C41.4975 46.4941 42.2429 44.7388 44.4789 39.1524C46.0724 35.1419 47.3833 31.7081 47.3833 31.5287C47.3833 30.7984 46.2909 30.3628 45.8026 30.9009Z" fill="#C22522"/>
<path d="M37.038 33.7457C36.8967 33.7969 35.7786 34.8475 34.5706 36.0776C32.7072 37.9483 32.3474 38.3711 32.3474 38.6915C32.3474 38.999 32.7201 39.4474 34.6349 41.4077C37.0894 43.9319 37.2308 44.0215 37.9247 43.4706C38.1689 43.2784 38.2589 43.099 38.2589 42.7403C38.2589 42.3175 38.1047 42.1253 36.4597 40.4852L34.6734 38.6786L36.4597 36.872C38.0918 35.2448 38.2589 35.0269 38.2589 34.6169C38.2589 33.9507 37.6292 33.5022 37.038 33.7457Z" fill="#C22522"/>
<path d="M50.2506 33.7464C49.9036 33.8873 49.698 34.2589 49.698 34.7201C49.698 35.0021 50.0707 35.4376 51.4971 36.8855L53.3092 38.6921L51.4971 40.5628C49.5438 42.6001 49.4152 42.8306 50.0193 43.4201C50.649 44.0607 50.8289 43.9454 53.3219 41.4597C55.3653 39.4225 55.6095 39.1406 55.6095 38.7561C55.6095 38.3846 55.3653 38.0771 53.5276 36.1551C51.6642 34.2076 50.9702 33.6054 50.6361 33.6311C50.5847 33.6311 50.4048 33.6823 50.2506 33.7464Z" fill="#C22522"/>
<path d="M58.0626 41.1648C57.9341 41.2929 57.7928 41.6645 57.7542 42.0233C57.7156 42.3693 57.6386 42.9714 57.6 43.3687L57.51 44.0733L56.7004 44.4321L55.8908 44.778L54.7599 44.0093C54.0917 43.5352 53.5005 43.2277 53.3078 43.2277C53.0507 43.2277 52.6009 43.5993 51.3544 44.8549C50.4548 45.7647 49.6966 46.5975 49.658 46.7256C49.5424 47.0588 49.7223 47.4303 50.519 48.4169C50.9174 48.9038 51.2387 49.365 51.2387 49.4419C51.2387 49.5316 50.7889 50.7488 50.6475 51.0179C50.6475 51.0307 50.0564 51.146 49.3368 51.2742C47.4348 51.6201 47.5118 51.4792 47.5118 54.3748C47.5118 57.2962 47.4219 57.1552 49.3368 57.3987C50.0693 57.4883 50.6604 57.5653 50.6733 57.5653C50.6861 57.5781 50.8403 57.9497 51.0331 58.3981L51.38 59.2181L50.6604 60.2175C49.915 61.2682 49.748 61.6269 49.8765 62.0241C49.915 62.1651 50.6733 62.9723 51.5342 63.8308C53.4876 65.7527 53.4491 65.7398 54.9912 64.5611L56.0835 63.7283L56.8418 64.0613C57.253 64.2408 57.6386 64.4458 57.6771 64.5226C57.7285 64.5867 57.8313 65.1761 57.9212 65.8167C58.1397 67.2646 58.3711 67.5721 59.2706 67.5721H59.8489V68.6612V69.7502H43.2967H26.7317L26.4618 70.0449C26.1791 70.3397 26.1791 70.4165 26.1791 74.0169C26.1791 77.3738 26.2048 77.7454 26.4361 78.3732C26.7831 79.3086 27.4514 80.0389 28.3381 80.4746L29.0706 80.8333H43.9778H58.8851L59.5662 80.5258C59.9646 80.3464 60.4657 79.9748 60.7999 79.6033C61.7638 78.527 61.7766 78.463 61.7766 72.6716V67.5721H62.5348C63.6914 67.5721 63.8199 67.4183 64.0384 65.7142C64.1412 64.9454 64.2311 64.3176 64.2569 64.3047C64.9636 63.9845 65.8118 63.7154 65.9531 63.7667C66.0432 63.8051 66.5187 64.1254 67.007 64.4713C67.4825 64.8173 68.0094 65.1504 68.1636 65.1888C68.6262 65.3298 69.1146 64.9711 70.631 63.3951C72.3916 61.5373 72.3787 61.55 71.235 60.0893L70.3996 59.0259L70.7338 58.1931L71.0551 57.3731L72.3402 57.1681C74.2807 56.8478 74.2422 56.9246 74.2422 54.1057C74.2422 51.2229 74.3063 51.3254 72.3787 51.0563L71.0037 50.8513L70.6824 50.0441L70.3611 49.2369L71.145 48.0709C71.7876 47.1356 71.9289 46.8281 71.8647 46.5718C71.7619 46.149 68.7804 43.138 68.3692 43.0355C67.9836 42.9458 67.7009 43.0996 66.6343 43.9452C66.1588 44.3296 65.7219 44.6371 65.6576 44.6371C65.5933 44.6371 65.2078 44.4962 64.7838 44.3296L64.0255 44.0221L63.807 42.7152C63.6785 41.9208 63.4986 41.3058 63.3701 41.1648C63.1645 40.947 62.9332 40.9214 60.7228 40.9214C58.5381 40.9214 58.2811 40.947 58.0626 41.1648ZM62.0208 43.8299C62.2778 45.4699 62.3549 45.5724 63.5115 45.9312C63.7942 46.0081 64.3597 46.2515 64.758 46.4437C65.1692 46.6487 65.6447 46.8152 65.8118 46.8152C66.0046 46.8152 66.5058 46.5077 67.1226 46.0337L68.1122 45.2521L68.8832 46.0209L69.6671 46.8025L68.9346 47.8659C68.5363 48.4553 68.2021 49.0319 68.2021 49.16C68.2021 49.2882 68.3692 49.711 68.5748 50.121C68.7804 50.5182 69.0503 51.1844 69.1788 51.6073C69.3073 52.0173 69.5258 52.4273 69.68 52.5298C69.8213 52.6195 70.4768 52.7604 71.1321 52.8501L72.3145 53.0038V54.1186V55.2333L71.145 55.3998C70.5024 55.4896 69.8727 55.6562 69.7314 55.7714C69.5901 55.8868 69.3073 56.4505 69.1146 57.0399C68.9089 57.6165 68.6519 58.2315 68.5363 58.4109C68.1636 58.9875 68.2664 59.4488 69.0374 60.4225C69.423 60.9094 69.7443 61.3578 69.7443 61.4091C69.7443 61.4603 69.3972 61.8319 68.986 62.2419L68.2278 62.9979L67.2254 62.2676C66.6729 61.8703 66.0946 61.55 65.9275 61.55C65.7733 61.55 65.2464 61.7423 64.7709 61.9857C64.2954 62.2291 63.6528 62.4853 63.3573 62.5622C62.5477 62.7801 62.3292 63.1388 62.2264 64.497L62.1364 65.6502H61.0055H59.8746L59.7975 65.2913C59.759 65.0992 59.669 64.5738 59.579 64.1126C59.502 63.6642 59.3863 63.1901 59.3349 63.0748C59.2706 62.9594 58.7823 62.716 58.2683 62.5366C57.7414 62.3444 57.0089 62.0498 56.6362 61.8832C55.8265 61.5116 55.6466 61.55 54.6057 62.3957C54.2073 62.7288 53.7961 63.0235 53.7061 63.0619C53.5262 63.126 52.1383 61.8448 52.1383 61.6141C52.1383 61.5373 52.3953 61.1144 52.7166 60.6787C53.629 59.4231 53.6418 59.3847 53.0507 58.1034C52.7809 57.5012 52.4852 56.7837 52.4082 56.5274C52.3182 56.2712 52.1639 55.9892 52.074 55.9124C51.9712 55.8227 51.3415 55.6946 50.6989 55.6049L49.5038 55.4639L49.4652 54.3493L49.4267 53.2473L49.7865 53.1704C49.9793 53.132 50.519 53.0423 50.9817 52.9654C51.4443 52.8757 51.9198 52.722 52.0355 52.6195C52.1512 52.517 52.3824 52.0429 52.5366 51.5688C52.6908 51.1076 52.9479 50.4798 53.1149 50.1851C53.5904 49.365 53.5262 49.0575 52.6523 47.9684L51.8813 47.0075L52.6652 46.2259L53.4491 45.4315L54.4129 46.1234C54.9398 46.4949 55.4924 46.8409 55.6209 46.8793C55.7751 46.9306 56.1607 46.8153 56.6104 46.5847C57.0089 46.3797 57.7285 46.0849 58.2169 45.9312C58.6923 45.7647 59.1293 45.534 59.2064 45.4187C59.2963 45.2393 59.5919 43.3687 59.5919 42.9458C59.5919 42.8818 60.1059 42.8433 60.7356 42.8433H61.8666L62.0208 43.8299ZM59.8489 74.6703C59.8489 77.5533 59.8361 77.6686 59.5662 78.0786C59.3991 78.3092 59.065 78.6039 58.8208 78.732C58.3967 78.9627 57.7414 78.9755 44.055 78.9755C29.9959 78.9755 29.726 78.9755 29.1991 78.7192C28.865 78.5527 28.5694 78.2836 28.3895 77.9633C28.1196 77.4892 28.1068 77.3098 28.1068 74.5678V71.6722H43.9778H59.8489V74.6703Z" fill="#C22522" stroke="#C22522" stroke-width="0.8"/>
<path d="M59.3727 49.3144C57.9976 49.7372 56.6226 50.9929 56.1086 52.2998C55.8772 52.8764 55.8129 53.2864 55.8001 54.2474C55.8001 55.362 55.8387 55.5414 56.2114 56.323C57.7792 59.6287 61.9686 60.3334 64.5388 57.7324C67.199 55.0417 65.9653 50.3907 62.3027 49.3272C61.4674 49.0838 60.1181 49.0709 59.3727 49.3144ZM62.5212 51.5182C63.2409 51.9539 63.8963 52.9533 64.0248 53.7989C64.1405 54.6189 63.8063 55.6695 63.228 56.3102C62.7782 56.8099 62.1999 57.1943 61.9044 57.1943C61.8272 57.1943 61.7758 56.4896 61.7758 55.157V53.107L61.4418 52.8508C60.9791 52.4919 60.6706 52.5176 60.2209 52.9533L59.8482 53.3248V55.2595C59.8482 56.323 59.8097 57.1943 59.7583 57.1943C59.7196 57.1943 59.437 57.0534 59.1414 56.8868C57.445 55.8874 57.188 53.2992 58.653 51.9154C59.6682 50.9544 61.3261 50.775 62.5212 51.5182Z" fill="#C22522"/>
<path d="M38.9269 75.0418C38.4128 75.5927 38.6827 76.4127 39.4409 76.6049C39.608 76.6433 41.7798 76.6689 44.2729 76.6433L48.8222 76.6049L49.0664 76.2974C49.3877 75.913 49.3748 75.3236 49.0535 75.0033C48.8094 74.7598 48.6294 74.747 44.0031 74.747H39.1968L38.9269 75.0418Z" fill="#C22522"/>
</svg>
