<svg width="100" height="100" viewBox="0 0 100 100" fill="none" xmlns="http://www.w3.org/2000/svg">
<path d="M25.2887 92.8013L0.57735 50L25.2887 7.19873H74.7113L99.4226 50L74.7113 92.8013H25.2887Z" fill="#F8FAFC" stroke="#E2E8F0"/>
<path d="M50.5 54.9875C53.2545 54.9875 55.4875 52.7545 55.4875 50C55.4875 47.2455 53.2545 45.0125 50.5 45.0125C47.7455 45.0125 45.5125 47.2455 45.5125 50C45.5125 52.7545 47.7455 54.9875 50.5 54.9875Z" fill="#61DAFB"/>
<path d="M69.4438 41.775C68.4813 41.425 67.475 41.075 66.425 40.7688C66.6875 39.7188 66.9063 38.6688 67.0813 37.6625C68 31.8875 66.9938 27.8188 64.1938 26.2438C63.3625 25.7625 62.4438 25.5438 61.3938 25.5438C58.3313 25.5438 54.4375 27.8188 50.5 31.625C46.5625 27.8188 42.6688 25.5438 39.6063 25.5438C38.5563 25.5438 37.6375 25.7625 36.8063 26.2438C34.0063 27.8625 33 31.9313 33.9188 37.6625C34.0938 38.6688 34.3125 39.7188 34.575 40.7688C33.525 41.075 32.5188 41.3813 31.5563 41.775C26.0875 43.875 23.1125 46.7625 23.1125 50C23.1125 53.2375 26.1313 56.125 31.5563 58.225C32.5188 58.575 33.525 58.925 34.575 59.2313C34.3125 60.2813 34.0938 61.3313 33.9188 62.3375C33 68.1125 34.0063 72.1813 36.8063 73.7563C37.6375 74.2375 38.5563 74.4563 39.6063 74.4563C42.7125 74.4563 46.6063 72.1813 50.5 68.375C54.4375 72.1813 58.3313 74.4563 61.3938 74.4563C62.4438 74.4563 63.3625 74.2375 64.1938 73.7563C66.9938 72.1375 68 68.0688 67.0813 62.3375C66.9063 61.3313 66.6875 60.2813 66.425 59.2313C67.475 58.925 68.4813 58.6188 69.4438 58.225C74.9125 56.125 77.8875 53.2375 77.8875 50C77.8875 46.7625 74.9125 43.875 69.4438 41.775V41.775ZM62.9688 28.4313C64.7625 29.4813 65.375 32.7188 64.6313 37.3125C64.5 38.2313 64.2813 39.1938 64.0188 40.2C61.7438 39.675 59.3375 39.325 56.8 39.1063C55.3125 37.0063 53.7813 35.125 52.25 33.4188C55.4875 30.225 58.7688 28.0375 61.4375 28.0375C62.0063 28.0375 62.5313 28.1688 62.9688 28.4313V28.4313ZM58.0688 54.375C57.2813 55.775 56.3625 57.175 55.4 58.575C53.7813 58.7063 52.1625 58.75 50.5 58.75C48.7938 58.75 47.175 58.7063 45.6 58.575C44.6375 57.175 43.7625 55.775 42.975 54.375C42.1438 52.9313 41.3563 51.4438 40.6563 50C41.3563 48.5563 42.1438 47.0688 42.975 45.625C43.7625 44.225 44.6813 42.825 45.6438 41.425C47.2625 41.2938 48.8813 41.25 50.5438 41.25C52.25 41.25 53.8688 41.2938 55.4438 41.425C56.4063 42.825 57.2813 44.225 58.0688 45.625C58.9 47.0688 59.6875 48.5563 60.3875 50C59.6438 51.4438 58.9 52.8875 58.0688 54.375ZM61.7 52.9313C62.3563 54.4625 62.8813 55.95 63.3625 57.4375C61.875 57.7875 60.3 58.05 58.6375 58.2688C59.1625 57.4375 59.7313 56.5625 60.2125 55.6438C60.7375 54.725 61.2188 53.8063 61.7 52.9313ZM50.5 64.7875C49.45 63.65 48.4438 62.425 47.4813 61.1563C48.4875 61.2 49.4938 61.2438 50.5 61.2438C51.5063 61.2438 52.5125 61.2 53.5188 61.1563C52.5563 62.425 51.55 63.65 50.5 64.7875ZM42.3625 58.225C40.7 58.0063 39.125 57.7438 37.6375 57.3938C38.1188 55.95 38.6438 54.4188 39.3 52.8875C39.7813 53.7625 40.2625 54.6813 40.7875 55.5563C41.3125 56.5188 41.8375 57.35 42.3625 58.225V58.225ZM39.3 47.0688C38.6438 45.5375 38.1188 44.05 37.6375 42.5625C39.125 42.2125 40.7 41.95 42.3625 41.7313C41.8375 42.5625 41.2688 43.4375 40.7875 44.3563C40.2625 45.275 39.7813 46.1938 39.3 47.0688V47.0688ZM50.5 35.2125C51.55 36.35 52.5563 37.575 53.5188 38.8438C52.5125 38.8 51.5063 38.7563 50.5 38.7563C49.4938 38.7563 48.4875 38.8 47.4813 38.8438C48.4438 37.575 49.45 36.35 50.5 35.2125ZM60.2125 44.4L58.6375 41.775C60.3 41.9938 61.875 42.2563 63.3625 42.6063C62.8813 44.05 62.3563 45.5813 61.7 47.1125C61.2188 46.1938 60.7375 45.275 60.2125 44.4ZM36.3688 37.3125C35.625 32.7188 36.2375 29.4813 38.0313 28.4313C38.4688 28.1688 38.9938 28.0375 39.5625 28.0375C42.1875 28.0375 45.4688 30.1813 48.75 33.4188C47.2188 35.0813 45.6875 37.0063 44.2 39.1063C41.6625 39.325 39.2563 39.7188 36.9813 40.2C36.7188 39.1938 36.5438 38.2313 36.3688 37.3125V37.3125ZM25.5625 50C25.5625 47.9438 28.0563 45.7563 32.4313 44.1375C33.3063 43.7875 34.2688 43.4813 35.2313 43.2188C35.9313 45.4063 36.8063 47.725 37.8563 50.0438C36.8063 52.3625 35.8875 54.6375 35.2313 56.825C29.1938 55.075 25.5625 52.45 25.5625 50ZM38.0313 71.5688C36.2375 70.5188 35.625 67.2813 36.3688 62.6875C36.5 61.7688 36.7188 60.8063 36.9813 59.8C39.2563 60.325 41.6625 60.675 44.2 60.8938C45.6875 62.9938 47.2188 64.875 48.75 66.5813C45.5125 69.775 42.2313 71.9625 39.5625 71.9625C38.9938 71.9625 38.4688 71.8313 38.0313 71.5688ZM64.6313 62.6875C65.375 67.2813 64.7625 70.5188 62.9688 71.5688C62.5313 71.8313 62.0063 71.9625 61.4375 71.9625C58.8125 71.9625 55.5313 69.8188 52.25 66.5813C53.7813 64.9188 55.3125 62.9938 56.8 60.8938C59.3375 60.675 61.7438 60.2813 64.0188 59.8C64.2813 60.8063 64.4563 61.7688 64.6313 62.6875V62.6875ZM68.5688 55.8625C67.6938 56.2125 66.7313 56.5188 65.7688 56.7813C65.0688 54.5938 64.1938 52.275 63.1438 49.9563C64.1938 47.6375 65.1125 45.3625 65.7688 43.175C71.8063 44.925 75.4375 47.55 75.4375 50C75.4375 52.0563 72.9 54.2438 68.5688 55.8625Z" fill="#61DAFB"/>
</svg>
