<svg width="101" height="100" viewBox="0 0 101 100" fill="none" xmlns="http://www.w3.org/2000/svg">
<path d="M25.7887 92.8013L1.07735 50L25.7887 7.19873H75.2113L99.9226 50L75.2113 92.8013H25.7887Z" fill="#F8FAFC" stroke="#E2E8F0"/>
<g clip-path="url(#clip0_2302_22367)">
<path d="M61.1245 57.0059C62.9797 59.2042 63.9508 61.6061 63.9107 64.3692C63.8555 68.1762 61.8998 71.0419 59.1518 73.395C55.9494 76.1368 52.0792 77.2933 47.9373 77.6181C47.0302 77.6701 46.1209 77.673 45.2134 77.6271C44.8214 77.6196 44.433 77.5506 44.0624 77.4223C42.5773 76.8843 42.3515 75.7842 43.5293 74.7491C44.6856 73.7335 45.9334 72.8184 47.0472 71.7602C47.9007 70.9433 48.6736 70.0458 49.3554 69.0808C50.0772 68.0649 50.1407 66.8928 49.6933 65.542C48.98 65.874 48.2968 66.1385 47.6689 66.4983C46.3524 67.2527 45.6097 67.2213 44.4802 66.2299C43.3828 65.2663 42.3044 64.2811 41.2126 63.311C41.0502 63.1842 40.8804 63.0671 40.7042 62.9606C40.0419 63.5726 39.4263 64.1832 38.7664 64.741C37.8919 65.4806 37.0245 65.4997 36.457 64.8451C35.9251 64.2323 36.0126 63.4223 36.7812 62.6347C37.3265 62.0754 37.9497 61.5916 38.4102 61.1859C37.1719 59.6746 35.9239 58.4354 35.0266 56.9815C33.9781 55.2813 35.274 53.7658 36.0838 52.1023C34.5379 52.0053 33.2667 52.2884 32.2449 53.0722C31.2698 53.8628 30.3904 54.7647 29.6246 55.7595C28.8829 56.6748 28.3059 57.7232 27.6475 58.7067C27.0266 59.6342 26.3907 60.6089 25.0836 60.4742C24.1787 60.381 22.917 58.7508 22.8333 57.5257C22.6436 54.7325 22.9992 52.0143 24.3035 49.4894C26.6927 44.8654 30.4567 41.8586 35.36 40.2499C37.4145 39.576 39.4842 39.7906 41.5797 40.4289C41.6959 40.2952 41.8322 40.162 41.9413 40.0095C47.6001 32.101 55.3118 27.081 64.4447 24.0998C67.5551 23.0847 70.7019 22.1606 74.0175 22.0759C74.8456 22.0548 75.6744 21.9915 76.5021 22.001C77.5816 22.0131 78.1199 22.396 78.0762 23.4505C78.0202 25.4912 77.8295 27.526 77.5043 29.5414C76.1719 37.1208 72.5268 43.6212 67.7924 49.5498C65.9499 51.8576 63.875 53.9806 61.9034 56.1857C61.6704 56.4455 61.4225 56.6926 61.1245 57.0059ZM42.702 60.5237C43.9351 61.5035 44.8331 62.2723 45.7984 62.9425C45.9625 63.0198 46.1417 63.0592 46.3231 63.0585C46.5044 63.0574 46.6833 63.0162 46.8465 62.9371C48.3767 62.126 49.9416 61.3499 51.366 60.3744C56.4393 56.9001 61.0291 52.8635 64.8873 48.0612C66.9806 45.4558 68.8958 42.708 70.931 39.9715L59.1385 29.0204C58.7491 29.2025 58.3699 29.4052 58.0023 29.6277C55.7021 31.1542 53.3571 32.6205 51.1359 34.2548C48.6461 36.0864 46.5392 38.3247 44.6583 40.7918C41.5389 44.8829 39.7023 49.6604 37.3941 54.1848C37.1646 54.6353 37.2934 55.5428 37.6187 55.9457C38.4655 56.9945 39.5141 57.8807 40.6518 58.9983C42.4303 57.1548 43.9953 55.4321 45.6751 53.8274C46.6429 52.9586 47.6805 52.1709 48.7775 51.4723C49.3542 51.0805 50.0904 50.947 50.6181 51.5486C51.1528 52.1585 50.6923 52.7558 50.3164 53.246C49.8722 53.7997 49.3908 54.3225 48.8756 54.811C47.8086 55.8658 46.7391 56.9174 45.6398 57.9376C44.7176 58.7949 43.7515 59.6035 42.702 60.5237ZM75.8413 24.3082C70.7955 24.3184 66.3419 26.1944 61.8012 27.721L61.7202 28.0352L72.1637 36.8393C73.9532 34.0033 75.3253 29.3275 75.8413 24.3082ZM50.8507 73.1732C55.0996 72.3729 58.3914 70.2178 60.2411 66.2682C61.4742 63.6322 60.6129 61.1722 59.1594 58.8332C56.713 60.7007 54.373 62.4876 52.0335 64.2739C53.8762 67.5258 52.9325 70.3898 50.8507 73.1732ZM40.2748 42.4109C34.2 41.4149 25.8026 49.6291 26.3472 55.2682C28.8279 51.3509 32.0111 48.9907 36.8013 49.8398L40.2748 42.4109Z" fill="#C22522"/>
<path d="M27.9573 72.7899C28.1373 72.4643 28.3306 71.8718 28.7161 71.46C30.1702 69.9075 31.6776 68.4045 33.186 66.9041C33.629 66.4633 34.1893 66.1855 34.7658 66.6559C35.3738 67.1519 35.1077 67.7448 34.7485 68.2354C33.5154 69.9191 32.2795 71.6027 30.9765 73.2317C30.5889 73.6768 30.0962 74.0183 29.5432 74.2246C28.7223 74.5483 27.9286 73.8972 27.9573 72.7899Z" fill="#C22522"/>
<path d="M41.4633 66.7531C42.3375 66.7769 42.9731 67.5652 42.5842 68.1758C41.5937 69.7127 40.5057 71.1846 39.3267 72.5821C38.9044 73.0879 38.1461 73.0164 37.6097 72.5322C37.3644 72.3249 37.204 72.0344 37.1588 71.7161C37.1137 71.3982 37.1869 71.0744 37.3647 70.8067C37.6865 70.2709 38.0692 69.7742 38.5051 69.3258C39.1508 68.6383 39.833 67.9825 40.5344 67.3524C40.8246 67.1241 41.1356 66.9236 41.4633 66.7531Z" fill="#C22522"/>
<path d="M33.6524 60.0832C33.4855 60.4521 33.2883 60.8065 33.0629 61.1425C31.9618 62.5169 30.8439 63.8775 29.709 65.224C29.4957 65.4538 29.2476 65.6485 28.9739 65.8006C28.4071 66.1493 27.8309 66.1486 27.374 65.6326C26.9018 65.0997 27.0066 64.5079 27.48 64.0495C29.0294 62.5476 30.5965 61.063 32.1948 59.6135C32.4037 59.4239 32.8486 59.3931 33.1542 59.4495C33.3377 59.4835 33.4639 59.8289 33.6524 60.0832Z" fill="#C22522"/>
<path d="M58.6171 34.9102C60.1569 34.889 61.3441 35.5189 62.5357 36.5112C63.7709 37.5399 64.6937 38.6371 65.1496 40.1706C66.202 43.7176 64.1196 46.3286 60.7426 46.8062C58.0058 47.1932 55.6843 46.0661 53.9957 43.9237C52.5492 42.0878 52.5101 39.9515 53.5134 37.8987C54.525 35.8274 56.3473 34.9322 58.6171 34.9102ZM55.3668 40.593C55.7623 41.2754 56.0462 42.1454 56.6355 42.6773C57.2458 43.2282 58.1334 43.5011 58.934 43.8056C59.9857 44.2058 60.8961 43.7818 61.6108 43.0378C62.3026 42.3181 62.3283 41.4141 61.9901 40.4934C61.4576 39.0417 60.2155 38.3132 58.9679 37.6561C57.8477 37.0661 56.7846 37.419 56.146 38.5238C55.8204 39.086 55.6748 39.7523 55.3668 40.593Z" fill="#C22522"/>
</g>
<defs>
<clipPath id="clip0_2302_22367">
<rect width="56" height="56" fill="white" transform="translate(22.5 22)"/>
</clipPath>
</defs>
</svg>
