<svg width="100" height="100" viewBox="0 0 100 100" fill="none" xmlns="http://www.w3.org/2000/svg">
<path d="M25.2887 92.8013L0.57735 50L25.2887 7.19873H74.7113L99.4226 50L74.7113 92.8013H25.2887Z" fill="#FDF6F6" stroke="#C22522"/>
<path d="M22.9354 21.386C20.5531 22.2338 19.8643 25.1339 21.637 26.8852C23.195 28.4245 25.8031 28.101 26.887 26.2382L27.2258 25.6693L32.871 25.6582H38.5163L37.1614 26.3051C34.7565 27.4652 32.1823 29.183 31.8549 29.8746C31.5048 30.5884 32.0468 31.3916 32.871 31.3916C33.142 31.3916 33.492 31.202 34.2597 30.6331C37.2065 28.4691 40.7517 26.9298 44.3987 26.2159C45.076 26.0932 45.7422 25.9594 45.889 25.9259C46.126 25.8813 46.1373 25.9147 46.1373 26.4948C46.1373 27.0079 46.1825 27.164 46.4648 27.4652L46.7922 27.8333L49.4454 27.8668L52.11 27.9002L52.4713 27.5768C52.7987 27.2979 52.8439 27.164 52.8891 26.5729C52.9342 25.937 52.9569 25.8924 53.1827 25.937C53.3068 25.9594 53.973 26.0932 54.6504 26.2159C58.2973 26.9298 61.8425 28.4691 64.7893 30.6331C65.5571 31.202 65.907 31.3916 66.178 31.3916C67.0022 31.3916 67.5442 30.5884 67.1941 29.8746C66.8667 29.183 64.2925 27.4652 61.8876 26.3051L60.5327 25.6582H66.178L71.8233 25.6693L72.162 26.2382C73.5055 28.536 76.9943 28.3353 78.1234 25.8924C78.4621 25.1785 78.4621 23.9069 78.1234 23.1931C76.9943 20.7502 73.5055 20.5494 72.162 22.8473L71.8233 23.4161L62.3844 23.4273H52.9342L52.8891 22.6353C52.8552 21.8991 52.8214 21.8099 52.4713 21.5087L52.11 21.1852L49.4454 21.2187L46.7922 21.2522L46.4648 21.6203C46.1712 21.9437 46.1373 22.0664 46.1373 22.7022V23.4273H36.6759H27.2258L26.9548 22.9253C26.2209 21.5645 24.4031 20.8729 22.9354 21.386ZM24.7983 23.8177C25.1935 24.2193 25.1822 24.8774 24.7644 25.2901C24.087 25.9705 22.9354 25.502 22.9354 24.5539C22.9354 23.5611 24.0757 23.1038 24.7983 23.8177ZM50.6536 24.5427V25.6582H49.5245H48.3955V24.5427V23.4273H49.5245H50.6536V24.5427ZM75.8314 23.8177C76.2266 24.2193 76.2152 24.8774 75.7975 25.2901C75.1201 25.9705 73.9684 25.502 73.9684 24.5539C73.9684 23.5611 75.1088 23.1038 75.8314 23.8177Z" fill="#C22522"/>
<path d="M29.2595 32.4506C28.5595 32.7407 28.345 33.6776 28.8757 34.1907C29.0337 34.3469 29.3498 34.5031 29.5757 34.5476C29.937 34.6034 30.0386 34.5588 30.3886 34.2131C30.9192 33.6888 30.9306 33.2537 30.3999 32.7295C30.016 32.3502 29.7111 32.2722 29.2595 32.4506Z" fill="#C22522"/>
<path d="M48.961 32.5069C48.7577 32.6185 47.1207 35.4852 42.9319 43.0703C39.7592 48.7925 37.1511 53.6 37.1286 53.7563C37.1059 53.9347 37.8511 56.0429 39.127 59.3893C40.256 62.3229 41.1705 64.788 41.1705 64.8549C41.1705 64.933 41.0351 65.0668 40.8657 65.1561C40.3915 65.4015 39.7253 66.3273 39.5222 67.0189C39.0818 68.4913 39.7705 70.1422 41.1141 70.8449L41.6221 71.1126V74.3139V77.5264L41.9495 77.8833L42.277 78.2515L49.4578 78.2849L56.6272 78.3072L56.9999 77.9837L57.3724 77.6603L57.4063 74.3697L57.4401 71.0791L57.7789 70.9453C58.287 70.7333 59.1111 69.8967 59.3596 69.3167C60.0144 67.8778 59.5176 66.0261 58.2756 65.2342C58.0612 65.0892 57.8805 64.9219 57.8805 64.8549C57.8805 64.7768 58.7951 62.3229 59.9241 59.3893C61.1999 56.0429 61.9451 53.9347 61.9225 53.7563C61.8999 53.6 59.2918 48.7925 56.1192 43.0703C51.6143 34.9052 50.3046 32.6296 50.0675 32.5069C49.6836 32.3173 49.3223 32.3173 48.961 32.5069ZM48.3965 44.3084L48.3851 50.6999L47.8094 51.0346C45.4835 52.3619 45.6868 55.8087 48.1593 56.9241C48.8819 57.2588 50.1691 57.2588 50.8917 56.9241C53.3643 55.8087 53.5675 52.3619 51.2416 51.0346L50.6659 50.6999V44.2861C50.6659 38.7534 50.6884 37.9057 50.8239 38.1511C50.903 38.3073 52.7546 41.6424 54.9337 45.5688L58.8854 52.7077L57.3498 52.7635L55.8256 52.8192L55.4982 53.1874C55.0692 53.6559 55.0692 54.102 55.4982 54.5705L55.8256 54.9386L57.474 54.972C58.3773 54.9944 59.1225 55.0501 59.1225 55.0836C59.1225 55.1282 58.3208 57.2699 57.3273 59.8466L55.5434 64.5315H49.5255H43.5076L41.7238 59.8466C40.7302 57.2699 39.9286 55.1282 39.9286 55.0724C39.9286 55.0279 40.6399 54.9944 41.5093 54.9944H43.0899L43.4512 54.6709C43.948 54.2359 43.9706 53.5778 43.5076 53.1316C43.2029 52.8304 43.1463 52.8192 41.6899 52.7635L40.1657 52.7077L44.2528 45.3234C46.4996 41.252 48.3513 37.9281 48.3739 37.9281C48.3851 37.9281 48.3965 40.8059 48.3965 44.3084ZM50.3158 53.1539C50.711 53.5555 50.6998 54.2136 50.282 54.6263C49.6046 55.3067 48.4529 54.8382 48.4529 53.89C48.4529 52.8973 49.5933 52.44 50.3158 53.1539ZM57.0337 67.1639C57.1918 67.3201 57.3498 67.6324 57.395 67.8555C57.4514 68.2124 57.4063 68.3128 57.0563 68.6586L56.6611 69.049L49.4803 69.0267L42.2996 68.9933L42.0173 68.7032C41.8592 68.547 41.7012 68.2348 41.656 68.0117C41.5996 67.6547 41.6448 67.5543 41.9947 67.2085L42.3899 66.8181L49.5707 66.8404L56.7514 66.8739L57.0337 67.1639ZM55.1708 73.6781V76.0763H49.5255H43.8802V73.6781V71.2799H49.5255H55.1708V73.6781Z" fill="#C22522"/>
<path d="M68.9909 32.4631C68.6296 32.6081 68.2683 33.1212 68.2683 33.4781C68.2683 33.9243 68.7876 34.4597 69.2957 34.5378C69.6457 34.5936 69.7699 34.549 70.0861 34.2701C70.4021 33.9912 70.4699 33.8574 70.4699 33.467C70.4699 33.0766 70.4021 32.9427 70.0974 32.675C69.7248 32.3515 69.4199 32.2846 68.9909 32.4631Z" fill="#C22522"/>
<path d="M26.5833 36.1988C26.2446 36.3885 25.3075 38.1175 24.6301 39.8241C24.1333 41.0957 23.5462 43.1704 23.2752 44.6317L23.0833 45.7136L22.18 45.7583C21.3332 45.7917 21.2655 45.814 20.9494 46.1598L20.6219 46.5167V49.0823V51.6478L20.9494 52.0048L21.2768 52.3729L23.9526 52.4063L26.6172 52.4398L27.0011 52.0605L27.3963 51.6701V49.0823V46.4944L27.0124 46.1152C26.6624 45.7694 26.5608 45.7359 25.9849 45.7359C25.4317 45.7359 25.3527 45.7136 25.4091 45.5351C25.443 45.4347 25.522 45.0221 25.5898 44.6205C25.7478 43.6723 26.3124 41.7092 26.6737 40.8057C26.8317 40.4264 27.2608 39.4783 27.6334 38.7086C28.2543 37.4035 28.2882 37.292 28.1753 36.8904C28.0963 36.6004 27.9382 36.3996 27.7011 36.2547C27.2721 35.9981 27.0011 35.987 26.5833 36.1988ZM25.1381 49.0823V50.1977H24.0091H22.88V49.0823V47.9668H24.0091H25.1381V49.0823Z" fill="#C22522"/>
<path d="M71.3511 36.2546C71.114 36.3996 70.9559 36.6004 70.8769 36.8904C70.764 37.292 70.7979 37.4035 71.4188 38.7086C71.7914 39.4782 72.2205 40.4263 72.3785 40.8056C72.7399 41.7091 73.3044 43.6723 73.4624 44.6204C73.5302 45.022 73.6092 45.4236 73.6431 45.524C73.6882 45.6801 73.5753 45.7136 72.9995 45.7582C72.3898 45.8028 72.2543 45.8474 71.9834 46.1597L71.6559 46.5167V49.0822V51.6478L71.9834 52.0047L72.3108 52.3728L74.964 52.4063L77.6286 52.4398L78.0012 52.1051L78.3738 51.7816V49.0822V46.3828L78.0012 46.0593C77.6625 45.7582 77.5609 45.7359 76.7931 45.7359H75.9577L75.8899 45.312C75.4835 42.7576 74.6818 40.2033 73.5753 37.9612C72.9544 36.7008 72.7172 36.3438 72.4576 36.1988C72.0172 35.9757 71.7914 35.9869 71.3511 36.2546ZM76.1721 49.0822V50.1977H75.0431H73.914V49.0822V47.9668H75.0431H76.1721V49.0822Z" fill="#C22522"/>
</svg>
