<svg width="101" height="100" viewBox="0 0 101 100" fill="none" xmlns="http://www.w3.org/2000/svg">
<path d="M25.7887 92.8013L1.07735 50L25.7887 7.19873H75.2113L99.9226 50L75.2113 92.8013H25.7887Z" fill="#F8FAFC" stroke="#E2E8F0"/>
<path d="M43.3324 64.9275C43.3324 64.9275 41.2469 66.1411 44.8186 66.5506C49.1464 67.045 51.3579 66.9741 56.1258 66.0729C56.1258 66.0729 57.3819 66.8582 59.1328 67.5389C48.4407 72.1196 34.9355 67.2734 43.3324 64.9275ZM42.0252 58.9491C42.0252 58.9491 39.6854 60.6811 43.2603 61.0513C47.8833 61.5286 51.5334 61.5675 57.8526 60.3513C57.8526 60.3513 58.7246 61.2372 60.0979 61.7211C47.1733 65.5011 32.7778 62.0186 42.0252 58.9491V58.9491Z" fill="#0074BD"/>
<path d="M53.0384 48.8061C55.6743 51.8401 52.3471 54.5679 52.3471 54.5679C52.3471 54.5679 59.036 51.1156 55.9648 46.7905C53.0952 42.7589 50.8955 40.7565 62.8051 33.8492C62.8051 33.8497 44.1103 38.5174 53.0384 48.8061V48.8061Z" fill="#EA2D2E"/>
<path d="M67.1788 69.3502C67.1788 69.3502 68.7227 70.6233 65.4778 71.6072C59.3082 73.4762 39.7939 74.0397 34.3742 71.6821C32.4269 70.8342 36.08 69.6586 37.2293 69.4106C38.4276 69.1511 39.1119 69.1984 39.1119 69.1984C36.9449 67.6728 25.1062 72.1952 33.0993 73.4924C54.896 77.0257 72.8317 71.9012 67.1788 69.3502V69.3502ZM44.3365 52.7536C44.3365 52.7536 34.4114 55.1113 40.8221 55.9684C43.5293 56.3306 48.9237 56.2475 53.9519 55.8257C58.06 55.4806 62.1826 54.7434 62.1826 54.7434C62.1826 54.7434 60.7353 55.3642 59.6871 56.0791C49.6062 58.7307 30.1366 57.4957 35.7422 54.7849C40.4812 52.4929 44.3365 52.7536 44.3365 52.7536V52.7536ZM62.1414 62.7054C72.3881 57.3824 67.65 52.2667 64.3429 52.9557C63.5344 53.1242 63.1717 53.2707 63.1717 53.2707C63.1717 53.2707 63.4727 52.7987 64.0467 52.5957C70.5887 50.2966 75.6191 59.3782 61.9367 62.9754C61.9367 62.9745 62.0937 62.8323 62.1414 62.7054V62.7054Z" fill="#0074BD"/>
<path d="M55.9648 22.6943C55.9648 22.6943 61.6383 28.3713 50.5823 37.0981C41.7159 44.1007 48.5606 48.0925 50.5792 52.6552C45.4031 47.9857 41.6065 43.8746 44.1532 40.0486C47.8929 34.4337 58.2534 31.7103 55.9648 22.6943Z" fill="#EA2D2E"/>
<path d="M45.3436 77.1342C55.1769 77.7629 70.2811 76.7842 70.6386 72.1309C70.6386 72.1309 69.9513 73.8949 62.5111 75.2945C54.1173 76.8747 43.7625 76.6905 37.6231 75.6769C37.6231 75.6773 38.8809 76.7185 45.3436 77.1342V77.1342Z" fill="#0074BD"/>
</svg>
