<svg width="21" height="20" viewBox="0 0 21 20" fill="none" xmlns="http://www.w3.org/2000/svg">
<path d="M10.5 8.75C11.1904 8.75 11.75 8.19036 11.75 7.5C11.75 6.80964 11.1904 6.25 10.5 6.25C9.80964 6.25 9.25 6.80964 9.25 7.5C9.25 8.19036 9.80964 8.75 10.5 8.75Z" fill="white"/>
<path d="M10.5 1.25C7.05391 1.25 4.25 3.93164 4.25 7.22656C4.25 8.7957 4.96523 10.8824 6.37578 13.4289C7.50859 15.4734 8.81914 17.3223 9.50078 18.2422C9.61596 18.3994 9.76656 18.5272 9.94037 18.6153C10.1142 18.7034 10.3063 18.7493 10.5012 18.7493C10.696 18.7493 10.8882 18.7034 11.062 18.6153C11.2358 18.5272 11.3864 18.3994 11.5016 18.2422C12.182 17.3223 13.4938 15.4734 14.6266 13.4289C16.0348 10.8832 16.75 8.79649 16.75 7.22656C16.75 3.93164 13.9461 1.25 10.5 1.25ZM10.5 10C10.0055 10 9.5222 9.85338 9.11107 9.57867C8.69995 9.30397 8.37952 8.91352 8.1903 8.45671C8.00108 7.99989 7.95157 7.49723 8.04804 7.01227C8.1445 6.52732 8.3826 6.08186 8.73223 5.73223C9.08186 5.3826 9.52732 5.1445 10.0123 5.04804C10.4972 4.95157 10.9999 5.00108 11.4567 5.1903C11.9135 5.37952 12.304 5.69995 12.5787 6.11108C12.8534 6.5222 13 7.00555 13 7.5C12.9993 8.16282 12.7357 8.79828 12.267 9.26697C11.7983 9.73565 11.1628 9.99928 10.5 10Z" fill="white"/>
</svg>
